<svg width="400" height="400" viewBox="0 0 400 400" fill="none" xmlns="http://www.w3.org/2000/svg">
<path fill-rule="evenodd" clip-rule="evenodd" d="M200.999 11.7458C191.913 12.4048 185.73 12.9638 183.599 13.3178C182.389 13.5188 180.139 13.8828 178.599 14.1258C166.689 16.0118 154.726 19.4628 143.799 24.1638C139.775 25.8948 139.134 26.0008 138.354 25.0608C135.55 21.6818 129.289 21.0068 124.799 23.5988C109.958 32.1678 101.639 51.0458 101.608 76.2318C101.599 82.8718 101.587 82.9618 100.582 84.0318C93.4654 91.6068 89.5114 108.837 91.5854 123.238C91.7974 124.71 92.1674 127.355 92.4074 129.115C93.5844 137.739 99.2054 157.506 102.027 162.947C102.255 163.387 101.921 164.178 100.931 165.547C100.147 166.63 99.0324 168.505 98.4534 169.715L97.3994 171.915V191.115V210.315L98.6304 212.917C101.299 218.561 106.402 222.435 112.399 223.367C116.046 223.935 116.242 224.074 116.582 226.342C117.211 230.533 119.951 239.811 122.009 244.715C127.472 257.732 134.517 268.047 144.237 277.258C148.058 280.879 150.95 283.065 160.599 289.622L163.399 291.525L163.504 304.636C163.62 318.97 163.573 319.311 161.485 319.322C158.494 319.339 147.604 321.444 141.799 323.128C115.188 330.847 94.1444 347.182 84.1554 367.874C81.1774 374.043 78.3994 383.557 78.3994 387.587V388.915H83.9914C89.4634 388.915 89.5884 388.896 89.7894 388.015C89.9024 387.52 90.3464 385.495 90.7764 383.515C92.2344 376.802 95.1734 370.378 99.6634 364.085C107.448 353.175 120.839 343.187 135.507 337.35C140.07 335.534 140.997 335.39 141.546 336.415C142.375 337.963 146.239 342.523 149.717 346.056C179.798 376.619 230.496 373.428 256.721 339.322C258.161 337.448 259.451 335.782 259.586 335.619C260.227 334.846 272.824 340.589 279.354 344.632C290.964 351.818 301.237 362.703 305.777 372.628C308.047 377.591 310.399 385.357 310.399 387.887V388.915H316.191H321.984L321.762 387.015C318.613 360.062 295.261 335.081 263.399 324.58C255.771 322.067 243.085 319.343 238.913 319.323C236.389 319.311 236.399 319.372 236.399 304.577V291.387L239.299 289.491C240.894 288.449 243.189 286.954 244.399 286.17C263.495 273.8 279.245 250.162 283.615 227.315C284.249 224.002 284.244 224.006 287.955 223.476C295.621 222.38 300.942 217.772 303.087 210.37C303.969 207.328 303.999 206.693 303.999 191.162C303.999 171.45 303.614 169.38 299.019 164.365C297.372 162.567 297.354 162.41 298.35 158.707C301.941 145.36 304.302 130.452 304.371 120.691C304.401 116.372 304.529 116.034 306.698 114.55C312.028 110.905 312.333 100.585 307.579 84.7148C307.118 83.1748 306.466 80.9958 306.13 79.8728L305.521 77.8308L307.471 75.8728C310.824 72.5078 312.003 68.2518 310.668 64.3348C308.66 58.4418 298.064 45.0048 290.599 38.8858C283.172 32.7978 274.858 27.9398 265.949 24.4828C262.834 23.2748 262.449 23.0078 261.993 21.7478C261.275 19.7618 257.751 16.3948 255.799 15.8288C252.974 15.0108 250.687 14.5758 246.799 14.1198C244.709 13.8748 242.009 13.5138 240.799 13.3168C238.723 12.9798 234.949 12.6738 221.14 11.7198C214.547 11.2638 207.514 11.2728 200.999 11.7458ZM214.999 95.7188C236.603 97.7118 248.173 102.14 258.22 112.264C266.357 120.463 270.724 129.708 274.206 146.115C275.069 150.178 275.584 205.141 274.835 213.183C272.193 241.533 258.984 263.689 235.599 278.991C232.409 281.078 226.649 284.847 222.799 287.366C211.99 294.437 207.58 296.115 199.799 296.115C191.083 296.115 187.813 294.645 169.799 282.628C147.661 267.86 140.715 260.23 132.389 241.537C131.307 239.107 128.458 230.498 128.014 228.315C127.108 223.865 126.407 220.031 126.024 217.438C125.491 213.832 125.436 143.012 125.964 140.235C126.164 139.179 126.534 136.965 126.786 135.315C129.418 118.051 135.942 104.082 143.027 100.544C144.887 99.6148 145.932 99.4398 155.099 98.5238C169.357 97.0998 175.121 96.6058 183.199 96.1158C187.049 95.8818 190.559 95.6308 190.999 95.5568C192.959 95.2308 211.027 95.3518 214.999 95.7188ZM154.199 142.493C147.744 143.109 136.799 146.122 136.799 147.283C136.799 147.634 139.559 153.031 139.922 153.389C140.074 153.54 141.673 153.157 143.475 152.537C145.277 151.918 147.977 151.191 149.475 150.922C150.973 150.653 153.063 150.272 154.119 150.074C159.136 149.136 168.375 149.952 175.449 151.96C179.793 153.193 179.549 153.309 180.953 149.338C182.16 145.923 182.273 146.132 178.599 144.983C171.449 142.747 161.827 141.766 154.199 142.493ZM235.599 142.494C228.491 143.122 218.399 146.016 218.399 147.426C218.399 148.147 221.219 153.715 221.585 153.715C221.759 153.715 222.598 153.418 223.45 153.055C229.731 150.378 241.652 148.972 248.232 150.132C253.312 151.028 255.091 151.423 257.51 152.193C260.751 153.224 260.888 153.146 262.207 149.528C263.481 146.035 263.515 146.105 259.999 144.987C253.048 142.777 243.471 141.798 235.599 142.494ZM149.473 156.375C148.638 157.209 149.348 160.515 150.362 160.515C151.694 160.515 151.999 161.388 151.999 165.195V168.915L153.527 170.443C158.978 175.894 166.399 172.155 166.399 163.958V160.568L167.499 160.442C168.535 160.322 168.599 160.199 168.599 158.315V156.315L159.173 156.208C153.988 156.149 149.623 156.224 149.473 156.375ZM231.363 156.666C230.757 158.244 231.379 160.313 232.499 160.442L233.599 160.568V163.958C233.599 172.155 241.02 175.894 246.471 170.443L247.999 168.915V165.195C247.999 161.363 248.302 160.515 249.671 160.515C250.477 160.515 250.93 159.21 250.73 157.463L250.599 156.315L241.089 156.208C233.194 156.119 231.543 156.196 231.363 156.666ZM291.885 172.877L292.799 174.233L292.798 191.074C292.796 210.832 292.773 210.932 287.887 212.55C285.696 213.276 285.77 214.062 285.993 192.348L286.199 172.382L287.999 171.897C290.471 171.23 290.837 171.322 291.885 172.877ZM114.493 172.671C114.904 173.292 114.863 211.795 114.451 212.445C114.033 213.104 111.527 212.161 110.07 210.796C108.053 208.906 107.999 208.396 107.999 191.04C107.999 174.754 108.051 174.094 109.459 172.474C110.097 171.739 113.977 171.891 114.493 172.671ZM187.861 175.246C186.789 176.431 186.855 219.28 187.93 220.253C189.1 221.311 209.573 221.248 210.537 220.184C211.805 218.782 211.491 208.803 210.145 207.744C207.607 205.748 205.599 207.391 205.599 211.464C205.599 213.179 205.404 214.55 205.119 214.835C204.451 215.503 193.947 215.503 193.279 214.835C192.919 214.475 192.799 209.542 192.799 195.097C192.799 176.948 192.757 175.801 192.068 175.177C191.079 174.282 188.698 174.322 187.861 175.246ZM176.181 249.097C174.464 250.814 175.029 253.614 177.264 254.464C186.435 257.951 207.727 258.347 219.599 255.252C223.163 254.323 224.079 253.562 224.079 251.532C224.079 248.453 222.145 247.591 217.731 248.702C212.875 249.924 207.025 250.515 199.799 250.515C192.573 250.515 186.723 249.924 181.867 248.702C178.545 247.866 177.327 247.951 176.181 249.097ZM225.694 313.815L225.799 328.715L230.199 329.203C249.482 331.343 248.984 331.15 245.506 335.122C224.489 359.127 189.188 362.65 163.599 343.296C159.87 340.476 152.709 333.076 152.876 332.216C153.061 331.268 157.432 330.496 169.381 329.3C171.791 329.058 173.906 328.773 174.081 328.664C174.256 328.556 174.399 321.908 174.399 313.891C174.399 297.685 174.253 298.424 177.081 300.347C190.009 309.134 209.992 308.909 223.555 299.823C224.301 299.324 225.063 298.915 225.25 298.915C225.437 298.915 225.636 305.62 225.694 313.815Z" fill="#211E1C"/>
<path fill-rule="evenodd" clip-rule="evenodd" d="M186.399 96.3356C185.849 96.4086 181.619 96.7596 176.999 97.1146C172.379 97.4706 165.269 98.0986 161.199 98.5106C157.129 98.9226 152.359 99.3736 150.599 99.5136C138.099 100.504 132.04 109.993 127.1 136.315C126.206 141.079 126.199 141.399 126.199 178.715V216.315L127.335 222.083C131.396 242.711 140.72 259.595 154.38 271.056C158.896 274.845 183.211 290.996 187.135 292.813C196.67 297.229 208.843 296.136 217.599 290.078C218.149 289.697 222.379 286.918 226.999 283.901C241.912 274.162 243.198 273.222 248.297 268.333C255.801 261.137 260.095 255.366 264.978 245.915C269.724 236.728 272.914 225.916 273.981 215.399C274.71 208.217 274.533 151.691 273.767 147.256C269.765 124.066 258.751 108.453 241.799 101.942C229.792 97.3296 223.522 96.4176 202.999 96.2956C194.419 96.2446 186.949 96.2626 186.399 96.3356ZM169.595 142.314C173.725 142.935 178.638 144.154 181.026 145.152C182.734 145.866 182.746 146.337 181.164 150.481C179.812 154.022 179.582 154.168 177.04 153.106C168.68 149.613 154.101 149.635 143.485 153.157C139.621 154.439 139.767 154.505 137.636 150.499L135.873 147.184L136.723 146.496C141.045 142.997 158.963 140.717 169.595 142.314ZM251.103 142.332C257.279 143.311 263.999 145.336 263.999 146.218C263.999 147.151 261.391 153.42 260.929 153.597C260.655 153.702 259.389 153.429 258.115 152.99C248.121 149.545 233.577 149.697 224.326 153.344C221.245 154.558 221.078 154.48 219.244 150.954C217.124 146.879 217.131 146.833 220.099 145.577C228.211 142.145 241.284 140.776 251.103 142.332ZM169.117 158.221L169.236 160.928L168.017 161.171L166.799 161.415L166.798 164.665C166.797 170.453 164.34 173.115 158.999 173.115C153.677 173.115 151.253 170.482 151.218 164.665L151.199 161.415L149.999 161.175C148.817 160.939 148.799 160.898 148.799 158.392C148.799 155.055 147.993 155.287 159.172 155.408L168.999 155.515L169.117 158.221ZM251.117 158.221L251.236 160.928L250.017 161.171L248.799 161.415V164.581C248.799 169.773 246.577 172.648 242.162 173.169C236.424 173.847 233.199 170.755 233.199 164.578V161.415L231.999 161.175C230.817 160.939 230.799 160.898 230.799 158.392C230.799 155.055 229.993 155.287 241.172 155.408L250.999 155.515L251.117 158.221ZM288.999 172.377C288.559 172.47 287.794 172.633 287.299 172.738L286.399 172.93V192.523C286.399 214.467 286.216 213.248 289.203 211.215C292.331 209.086 292.186 209.997 292.312 191.695C292.445 172.379 292.324 171.674 288.999 172.377ZM109.308 173.597C108.149 175.366 108.23 206.889 109.399 208.873C110.265 210.343 111.671 211.497 113.099 211.909L113.999 212.169V192.592V173.015L112.749 172.765C110.618 172.339 110.042 172.478 109.308 173.597ZM192.277 174.68L193.399 175.645L193.599 194.98L193.799 214.315H199.199H204.599L204.716 211.453C204.886 207.281 207.813 205.016 210.434 207.028C212.537 208.643 212.827 218.548 210.83 220.546L209.661 221.715H199.199H188.737L187.568 220.546L186.399 219.377V197.715V176.053L187.568 174.884C189.034 173.419 190.724 173.345 192.277 174.68ZM183.79 248.528C192.383 250.264 204.687 250.508 212.534 249.098C214.33 248.776 216.973 248.303 218.409 248.047C223.695 247.107 226.763 250.311 223.973 253.858C219.554 259.475 178.451 259.051 175.085 253.353C173.491 250.654 176.031 246.884 178.999 247.544C179.439 247.641 181.595 248.084 183.79 248.528ZM174.799 314.043C174.799 330.875 175.006 329.715 171.998 329.715C166.597 329.715 153.599 331.744 153.599 332.588C153.599 333.485 163.116 342.401 166.599 344.767C190.113 360.736 221.132 358.095 241.723 338.371C243.515 336.653 246.799 332.835 246.799 332.468C246.799 331.718 233.27 329.715 228.2 329.715C224.959 329.715 225.199 330.967 225.199 314.082C225.199 306.18 225.1 299.715 224.98 299.715C224.859 299.715 223.824 300.306 222.68 301.029C208.922 309.714 189.776 309.493 176.099 300.492L174.799 299.636V314.043Z" fill="#FBD3AB"/>
<path fill-rule="evenodd" clip-rule="evenodd" d="M201.499 11.6036C202.214 11.6926 203.384 11.6926 204.099 11.6036C204.814 11.5156 204.229 11.4426 202.799 11.4426C201.369 11.4426 200.784 11.5156 201.499 11.6036ZM218.699 11.6036C219.414 11.6926 220.584 11.6926 221.299 11.6036C222.014 11.5156 221.429 11.4426 219.999 11.4426C218.569 11.4426 217.984 11.5156 218.699 11.6036ZM196.499 12.0016C197.104 12.0926 198.094 12.0926 198.699 12.0016C199.304 11.9096 198.809 11.8346 197.599 11.8346C196.389 11.8346 195.894 11.9096 196.499 12.0016ZM224.099 12.0016C224.704 12.0926 225.694 12.0926 226.299 12.0016C226.904 11.9096 226.409 11.8346 225.199 11.8346C223.989 11.8346 223.494 11.9096 224.099 12.0016ZM190.899 12.3906C191.284 12.4906 191.914 12.4906 192.299 12.3906C192.684 12.2896 192.369 12.2076 191.599 12.2076C190.829 12.2076 190.514 12.2896 190.899 12.3906ZM231.099 12.3966C231.594 12.4926 232.404 12.4926 232.899 12.3966C233.394 12.3016 232.989 12.2236 231.999 12.2236C231.009 12.2236 230.604 12.3016 231.099 12.3966ZM116.984 29.4146L114.999 31.5146L117.099 29.5296C118.254 28.4376 119.199 27.4926 119.199 27.4296C119.199 27.1316 118.828 27.4636 116.984 29.4146ZM295.999 43.9146C297.194 45.1246 298.262 46.1146 298.372 46.1146C298.482 46.1146 297.594 45.1246 296.399 43.9146C295.204 42.7046 294.136 41.7146 294.026 41.7146C293.916 41.7146 294.804 42.7046 295.999 43.9146ZM101.7 66.7146C101.704 67.5946 101.786 67.9076 101.882 67.4096C101.978 66.9126 101.974 66.1926 101.874 65.8096C101.774 65.4276 101.695 65.8346 101.7 66.7146ZM101.349 76.7146C101.35 79.1346 101.415 80.0726 101.495 78.7996C101.575 77.5266 101.574 75.5466 101.493 74.3996C101.413 73.2526 101.348 74.2946 101.349 76.7146ZM188.799 95.6866C187.149 95.8116 192.729 95.9146 201.199 95.9146C209.669 95.9146 215.519 95.7996 214.199 95.6576C211.296 95.3476 192.99 95.3686 188.799 95.6866ZM176.799 96.5146C174.619 96.7816 174.615 96.7846 176.399 96.8096C177.389 96.8236 179.189 96.6986 180.399 96.5316C182.56 96.2326 182.567 96.2276 180.799 96.2366C179.809 96.2406 178.009 96.3666 176.799 96.5146ZM220.199 96.5146C220.859 96.6826 222.029 96.8206 222.799 96.8216L224.199 96.8226L222.599 96.4916C220.444 96.0456 218.433 96.0656 220.199 96.5146ZM167.599 97.3336C166.522 97.5116 167.326 97.5476 169.599 97.4226C171.689 97.3076 173.474 97.1456 173.566 97.0636C173.84 96.8176 169.534 97.0126 167.599 97.3336ZM225.799 97.3146C227.491 97.7456 228.943 97.7456 227.599 97.3146C227.049 97.1386 226.149 96.9976 225.599 97.0016C224.701 97.0086 224.721 97.0406 225.799 97.3146ZM159.199 98.1146C157.55 98.3706 157.516 98.3976 158.799 98.4316C159.569 98.4516 160.919 98.3196 161.799 98.1376C163.865 97.7106 161.911 97.6926 159.199 98.1146ZM230.199 98.1146C230.639 98.3036 231.359 98.4526 231.799 98.4466C232.442 98.4376 232.403 98.3716 231.599 98.1146C230.231 97.6766 229.18 97.6766 230.199 98.1146ZM151.199 98.9366C150.334 99.1316 151.022 99.1696 152.999 99.0346C154.759 98.9156 156.274 98.7496 156.366 98.6656C156.66 98.3986 152.648 98.6086 151.199 98.9366ZM233.399 98.9146C233.839 99.1036 234.469 99.2586 234.799 99.2586C235.177 99.2586 235.103 99.1316 234.599 98.9146C234.159 98.7256 233.529 98.5706 233.199 98.5706C232.821 98.5706 232.895 98.6976 233.399 98.9146ZM144.999 99.7146C143.98 100.153 145.031 100.153 146.399 99.7146C147.203 99.4576 147.242 99.3916 146.599 99.3826C146.159 99.3766 145.439 99.5256 144.999 99.7146ZM310.892 101.715C310.892 102.485 310.974 102.8 311.075 102.415C311.175 102.03 311.175 101.4 311.075 101.015C310.974 100.63 310.892 100.945 310.892 101.715ZM139.013 103.815C136.533 106.371 132.771 112.282 132.81 113.562C132.815 113.756 133.492 112.655 134.314 111.115C136.463 107.086 138.083 104.873 140.426 102.767C141.559 101.748 142.337 100.915 142.156 100.915C141.975 100.915 140.56 102.22 139.013 103.815ZM244.432 102.664C244.844 103.032 247.199 104.115 247.199 103.936C247.199 103.705 244.981 102.515 244.552 102.515C244.395 102.515 244.341 102.582 244.432 102.664ZM247.599 104.305C247.599 104.409 248.184 104.78 248.899 105.129L250.199 105.763L249.199 104.948C248.236 104.163 247.599 103.907 247.599 104.305ZM258.047 112.315C259.934 114.295 262.342 117.22 263.397 118.815C265.41 121.857 266.314 122.788 264.756 120.215C263.101 117.48 260.505 114.35 257.542 111.515C254.739 108.833 254.76 108.867 258.047 112.315ZM304.541 119.915C304.54 121.895 304.607 122.755 304.691 121.827C304.775 120.899 304.776 119.279 304.694 118.227C304.611 117.175 304.542 117.935 304.541 119.915ZM130.285 120.201C129.92 121.34 129.689 122.338 129.77 122.419C129.851 122.5 130.224 121.644 130.599 120.515C130.974 119.386 131.205 118.388 131.114 118.296C131.022 118.205 130.649 119.062 130.285 120.201ZM267.083 125.101C267.896 126.743 268.626 128.022 268.705 127.942C268.884 127.764 266.064 122.115 265.797 122.115C265.692 122.115 266.27 123.459 267.083 125.101ZM128.999 124.515C128.847 125.206 128.806 125.856 128.908 125.957C129.01 126.059 129.208 125.568 129.349 124.865C129.682 123.198 129.359 122.875 128.999 124.515ZM128.228 127.544C128.08 128.13 128.037 128.687 128.131 128.781C128.226 128.875 128.423 128.473 128.57 127.886C128.718 127.3 128.761 126.743 128.667 126.649C128.572 126.555 128.375 126.957 128.228 127.544ZM127.377 131.493C127.226 132.296 127.193 133.042 127.303 133.152C127.413 133.262 127.626 132.696 127.777 131.893C127.927 131.09 127.961 130.343 127.851 130.233C127.741 130.123 127.527 130.69 127.377 131.493ZM270.653 133.715C270.788 134.265 271.144 135.255 271.444 135.915C271.883 136.879 271.942 136.918 271.745 136.115C271.61 135.565 271.254 134.575 270.954 133.915C270.515 132.951 270.456 132.912 270.653 133.715ZM126.639 135.755C126.492 136.672 126.451 137.5 126.546 137.595C126.641 137.691 126.845 137.025 126.999 136.115C127.153 135.205 127.195 134.377 127.092 134.275C126.989 134.172 126.786 134.838 126.639 135.755ZM272.067 138.115C272.087 139.154 272.717 140.861 272.731 139.915C272.737 139.475 272.588 138.755 272.399 138.315C272.188 137.825 272.06 137.747 272.067 138.115ZM125.858 140.803C125.72 141.634 125.63 143.305 125.657 144.515C125.699 146.339 125.766 146.105 126.05 143.145C126.405 139.457 126.297 138.145 125.858 140.803ZM272.855 141.315C272.855 141.645 273.01 142.275 273.199 142.715C273.416 143.219 273.543 143.293 273.543 142.915C273.543 142.585 273.388 141.955 273.199 141.515C272.982 141.011 272.855 140.937 272.855 141.315ZM154.999 142.078C153.899 142.208 156.329 142.315 160.399 142.315C164.675 142.315 166.87 142.205 165.599 142.055C162.948 141.741 157.746 141.752 154.999 142.078ZM236.199 142.078C235.099 142.208 237.529 142.315 241.599 142.315C245.875 142.315 248.07 142.205 246.799 142.055C244.148 141.741 238.946 141.752 236.199 142.078ZM148.799 142.915L147.799 143.235H148.799C149.349 143.235 150.249 143.091 150.799 142.915L151.799 142.595H150.799C150.249 142.595 149.349 142.739 148.799 142.915ZM169.999 142.915C170.549 143.091 171.359 143.235 171.799 143.235C172.432 143.235 172.391 143.169 171.599 142.915C171.049 142.739 170.239 142.595 169.799 142.595C169.166 142.595 169.207 142.661 169.999 142.915ZM230.399 142.915C229.607 143.169 229.566 143.235 230.199 143.235C230.639 143.235 231.449 143.091 231.999 142.915C232.791 142.661 232.832 142.595 232.199 142.595C231.759 142.595 230.949 142.739 230.399 142.915ZM251.399 142.915C253.091 143.346 254.543 143.346 253.199 142.915C252.649 142.739 251.749 142.598 251.199 142.602C250.301 142.609 250.321 142.641 251.399 142.915ZM145.399 143.715C144.38 144.153 145.431 144.153 146.799 143.715C147.603 143.458 147.642 143.392 146.999 143.383C146.559 143.377 145.839 143.526 145.399 143.715ZM172.832 143.462C172.924 143.543 173.719 143.719 174.599 143.853C175.714 144.022 175.957 143.986 175.399 143.734C174.631 143.386 172.489 143.159 172.832 143.462ZM226.599 143.715C225.58 144.153 226.631 144.153 227.999 143.715C228.803 143.458 228.842 143.392 228.199 143.383C227.759 143.377 227.039 143.526 226.599 143.715ZM255.199 143.715C256.567 144.153 257.618 144.153 256.599 143.715C256.159 143.526 255.439 143.377 254.999 143.383C254.356 143.392 254.395 143.458 255.199 143.715ZM223.599 144.515C223.066 144.86 223.066 144.903 223.599 144.903C223.929 144.903 224.469 144.728 224.799 144.515C225.332 144.17 225.332 144.127 224.799 144.127C224.469 144.127 223.929 144.302 223.599 144.515ZM273.679 145.115C273.679 145.555 273.823 146.365 273.999 146.915C274.253 147.707 274.319 147.748 274.319 147.115C274.319 146.675 274.175 145.865 273.999 145.315C273.745 144.523 273.679 144.482 273.679 145.115ZM179.599 145.315C179.929 145.528 180.469 145.703 180.799 145.703C181.332 145.703 181.332 145.66 180.799 145.315C180.469 145.102 179.929 144.927 179.599 144.927C179.066 144.927 179.066 144.97 179.599 145.315ZM137.499 146.344C136.894 146.672 136.402 147.16 136.405 147.428C136.409 147.77 136.499 147.783 136.705 147.473C136.867 147.23 137.539 146.742 138.199 146.389C138.859 146.036 139.219 145.747 138.999 145.747C138.779 145.747 138.104 146.016 137.499 146.344ZM181.748 145.989C181.894 146.249 181.718 147.202 181.356 148.105C180.995 149.009 180.785 149.835 180.891 149.941C180.997 150.046 181.4 149.304 181.787 148.29C182.352 146.812 182.391 146.355 181.986 145.981C181.601 145.626 181.545 145.627 181.748 145.989ZM218.899 146.203C217.866 146.701 217.743 147.943 218.612 149.091C218.935 149.519 219.199 149.664 219.199 149.415C219.199 149.166 219.019 148.851 218.799 148.715C218.025 148.237 218.41 146.935 219.499 146.344C220.756 145.662 220.261 145.546 218.899 146.203ZM262.979 146.615C262.969 147.11 262.835 147.965 262.683 148.515C262.465 149.305 262.528 149.263 262.985 148.315C263.617 147.003 263.772 145.715 263.299 145.715C263.134 145.715 262.99 146.12 262.979 146.615ZM274.599 181.915C274.599 200.395 274.714 214.435 274.856 213.115C275.183 210.053 275.177 165.498 274.848 155.715C274.711 151.645 274.599 163.435 274.599 181.915ZM137.599 149.905C137.599 150.01 137.958 150.685 138.398 151.405C139.337 152.946 139.468 152.596 138.589 150.895C138.04 149.834 137.599 149.393 137.599 149.905ZM154.222 150.062C153.574 150.201 156.345 150.315 160.38 150.315C164.415 150.315 167.014 150.19 166.157 150.038C164.246 149.698 155.838 149.715 154.222 150.062ZM235.599 150.068C234.829 150.204 237.519 150.315 241.576 150.315C245.634 150.315 248.424 150.201 247.776 150.062C246.27 149.739 237.437 149.743 235.599 150.068ZM149.199 150.915C148.407 151.169 148.366 151.235 148.999 151.235C149.439 151.235 150.249 151.091 150.799 150.915C151.591 150.661 151.632 150.595 150.999 150.595C150.559 150.595 149.749 150.739 149.199 150.915ZM169.999 150.915C170.549 151.091 171.359 151.235 171.799 151.235C172.432 151.235 172.391 151.169 171.599 150.915C171.049 150.739 170.239 150.595 169.799 150.595C169.166 150.595 169.207 150.661 169.999 150.915ZM230.599 150.915C229.58 151.353 230.631 151.353 231.999 150.915C232.803 150.658 232.842 150.592 232.199 150.583C231.759 150.577 231.039 150.726 230.599 150.915ZM251.199 150.915C251.749 151.091 252.559 151.235 252.999 151.235C253.632 151.235 253.591 151.169 252.799 150.915C252.249 150.739 251.439 150.595 250.999 150.595C250.366 150.595 250.407 150.661 251.199 150.915ZM145.999 151.715C145.204 152.229 146.203 152.229 147.399 151.715L148.199 151.371L147.399 151.349C146.959 151.337 146.329 151.502 145.999 151.715ZM173.399 151.715C173.839 151.904 174.469 152.059 174.799 152.059C175.177 152.059 175.103 151.932 174.599 151.715C174.159 151.526 173.529 151.371 173.199 151.371C172.821 151.371 172.895 151.498 173.399 151.715ZM227.399 151.715C226.895 151.932 226.821 152.059 227.199 152.059C227.529 152.059 228.159 151.904 228.599 151.715C229.103 151.498 229.177 151.371 228.799 151.371C228.469 151.371 227.839 151.526 227.399 151.715ZM254.032 151.459C254.124 151.538 254.739 151.723 255.399 151.871C256.275 152.067 256.437 152.03 255.999 151.733C255.459 151.368 253.631 151.113 254.032 151.459ZM261.199 152.061C261.199 152.325 260.794 152.704 260.299 152.903C259.409 153.26 259.408 153.265 260.256 153.29C261.059 153.313 261.872 152.255 261.408 151.791C261.293 151.676 261.199 151.797 261.199 152.061ZM142.474 152.788C141.525 153.124 140.82 153.469 140.906 153.556C141.089 153.738 144.799 152.52 144.799 152.277C144.799 152.027 144.344 152.127 142.474 152.788ZM176.999 152.701C178.292 153.324 179.999 153.503 179.999 153.015C179.999 152.85 179.504 152.709 178.899 152.701C178.294 152.694 177.349 152.56 176.799 152.405C176.018 152.185 176.062 152.25 176.999 152.701ZM149.042 156.348C148.273 158.352 149.068 160.722 150.599 160.985C151.309 161.108 151.424 161.528 151.623 164.719L151.848 168.315L151.923 164.895C152.002 161.351 151.697 160.515 150.327 160.515C149.521 160.515 149.068 159.21 149.268 157.463L149.399 156.315H159.099C164.434 156.315 168.799 156.18 168.799 156.015C168.799 155.342 149.302 155.67 149.042 156.348ZM231.199 156.015C231.199 156.18 235.564 156.315 240.899 156.315H250.599L250.73 157.463C250.93 159.21 250.477 160.515 249.671 160.515C248.301 160.515 247.996 161.351 248.075 164.895L248.15 168.315L248.375 164.719C248.574 161.528 248.689 161.108 249.399 160.985C250.93 160.722 251.725 158.352 250.956 156.348C250.696 155.67 231.199 155.342 231.199 156.015ZM167.499 160.402C166.894 160.493 166.399 160.711 166.399 160.886C166.399 161.296 168.342 160.931 168.629 160.467C168.748 160.274 168.791 160.142 168.723 160.175C168.655 160.208 168.104 160.31 167.499 160.402ZM231.414 160.54C231.661 160.94 233.599 161.264 233.599 160.905C233.599 160.74 233.069 160.528 232.42 160.433C231.772 160.338 231.319 160.386 231.414 160.54ZM165.599 168.915C165.319 169.59 164.53 170.6 163.845 171.161C163.16 171.721 162.961 172.002 163.403 171.785C164.707 171.144 166.765 168.347 166.285 167.868C166.187 167.77 165.878 168.241 165.599 168.915ZM233.615 167.956C233.589 168.685 235.33 170.991 236.399 171.642C237.174 172.114 237.114 171.989 236.131 171.083C235.433 170.441 234.585 169.375 234.247 168.715C233.908 168.055 233.624 167.713 233.615 167.956ZM152.335 169.519C152.752 170.379 153.82 171.407 154.799 171.889C155.129 172.051 154.969 171.834 154.443 171.406C153.917 170.977 153.14 170.197 152.716 169.671C152.131 168.945 152.039 168.909 152.335 169.519ZM246.798 170.215C246.209 171.019 246.112 171.299 246.544 170.948C247.2 170.415 248.192 168.915 247.888 168.915C247.812 168.915 247.321 169.5 246.798 170.215ZM288.999 171.718C288.356 172.004 288.465 172.058 289.555 171.995C290.779 171.923 291.003 172.087 291.855 173.678C292.374 174.648 292.799 175.169 292.799 174.837C292.799 172.917 290.516 171.043 288.999 171.718ZM112.799 172.468L114.199 172.715L114.303 192.115C114.36 202.785 114.319 211.744 114.212 212.024C113.91 212.812 111.221 211.567 109.899 210.026C109.294 209.322 108.799 208.93 108.799 209.155C108.799 210.545 113.807 213.46 114.451 212.445C114.831 211.846 114.932 173.726 114.556 172.748C114.39 172.316 113.851 172.132 112.856 172.168L111.399 172.22L112.799 172.468ZM286.254 172.425C286.149 172.596 286.017 181.731 285.961 192.725C285.852 214.35 285.795 213.759 287.886 212.56C288.478 212.221 288.396 212.166 287.399 212.233C286.261 212.311 286.2 212.237 286.219 210.815C286.23 209.99 286.275 201.048 286.319 190.943L286.399 172.571L287.299 172.397C288.199 172.224 288.199 172.224 287.323 172.169C286.841 172.14 286.36 172.255 286.254 172.425ZM108.242 174.348C107.893 175.257 107.953 207.424 108.305 207.977C108.467 208.231 108.599 200.626 108.599 191.077C108.599 181.528 108.573 173.715 108.542 173.715C108.51 173.715 108.375 174 108.242 174.348ZM189.299 174.391C189.684 174.491 190.314 174.491 190.699 174.391C191.084 174.29 190.769 174.208 189.999 174.208C189.229 174.208 188.914 174.29 189.299 174.391ZM96.982 191.115C96.982 200.355 97.035 204.078 97.099 199.388C97.163 194.698 97.163 187.138 97.098 182.588C97.034 178.038 96.982 181.875 96.982 191.115ZM186.986 197.715C186.986 209.705 187.037 214.61 187.099 208.615C187.161 202.62 187.161 192.81 187.099 186.815C187.037 180.82 186.986 185.725 186.986 197.715ZM192.895 195.135C192.822 209.659 192.916 214.472 193.279 214.835C193.605 215.161 195.501 215.315 199.199 215.315C205.666 215.315 205.599 215.355 205.599 211.464C205.599 207.392 207.607 205.748 210.143 207.742C210.859 208.306 211.123 208.381 210.968 207.979C210.652 207.155 208.627 206.389 207.615 206.71C205.838 207.274 205.199 208.491 205.199 211.31C205.199 212.834 204.996 214.158 204.719 214.435C204.007 215.147 194.249 215.098 193.652 214.379C193.343 214.006 193.174 208.065 193.099 194.879L192.991 175.915L192.895 195.135ZM291.997 208.519C291.717 209.195 290.842 210.281 290.052 210.932C289.263 211.582 288.795 212.115 289.012 212.115C290.01 212.115 293.24 208.023 292.682 207.465C292.586 207.368 292.278 207.843 291.997 208.519ZM211.356 214.115C211.356 217.085 211.419 218.3 211.496 216.815C211.573 215.33 211.573 212.9 211.496 211.415C211.419 209.93 211.356 211.145 211.356 214.115ZM125.622 212.948C125.635 214.14 125.796 215.835 125.981 216.715C126.209 217.803 126.248 217.163 126.102 214.715C125.861 210.666 125.587 209.658 125.622 212.948ZM273.845 218.462C273.688 219.642 273.645 220.694 273.749 220.798C274.016 221.065 274.521 217.479 274.306 216.84C274.21 216.551 274.002 217.281 273.845 218.462ZM102.199 218.515C103.058 219.395 103.851 220.115 103.961 220.115C104.071 220.115 103.458 219.395 102.599 218.515C101.74 217.635 100.947 216.915 100.837 216.915C100.727 216.915 101.34 217.635 102.199 218.515ZM126.479 220.515C126.479 221.065 126.623 221.965 126.799 222.515L127.119 223.515V222.515C127.119 221.965 126.975 221.065 126.799 220.515L126.479 219.515V220.515ZM193.899 221.214C196.814 221.282 201.584 221.282 204.499 221.214C207.414 221.146 205.029 221.09 199.199 221.09C193.369 221.09 190.984 221.146 193.899 221.214ZM273.021 223.537C272.871 224.34 272.827 225.077 272.925 225.175C273.023 225.272 273.226 224.696 273.377 223.893C273.527 223.09 273.571 222.353 273.473 222.255C273.375 222.158 273.172 222.734 273.021 223.537ZM284.479 224.195C284.215 224.459 283.999 224.853 283.999 225.071C283.999 225.29 284.224 225.175 284.499 224.816C284.774 224.458 285.539 224.091 286.199 224L287.399 223.835L286.179 223.775C285.508 223.742 284.743 223.931 284.479 224.195ZM127.267 224.715C127.261 225.155 127.41 225.875 127.599 226.315C128.037 227.334 128.037 226.283 127.599 224.915C127.342 224.111 127.276 224.072 127.267 224.715ZM272.249 226.965C272.108 227.668 272.068 228.317 272.158 228.407C272.249 228.498 272.447 228.006 272.599 227.315C272.751 226.624 272.792 225.974 272.69 225.873C272.588 225.771 272.39 226.262 272.249 226.965ZM128.033 228.515C128.045 228.845 128.21 229.475 128.399 229.915L128.743 230.715L128.765 229.915C128.777 229.475 128.612 228.845 128.399 228.515C128.054 227.982 128.014 227.982 128.033 228.515ZM271.399 230.115C271.249 230.588 271.216 231.065 271.326 231.175C271.436 231.285 271.649 230.988 271.799 230.515C271.949 230.042 271.982 229.565 271.872 229.455C271.762 229.345 271.549 229.642 271.399 230.115ZM270.628 232.744C270.48 233.33 270.437 233.887 270.531 233.981C270.626 234.075 270.823 233.673 270.97 233.086C271.118 232.5 271.161 231.943 271.067 231.849C270.972 231.755 270.775 232.157 270.628 232.744ZM129.853 234.515C129.988 235.065 130.344 236.055 130.644 236.715C131.083 237.679 131.142 237.718 130.945 236.915C130.81 236.365 130.454 235.375 130.154 234.715C129.715 233.751 129.656 233.712 129.853 234.515ZM269.414 236.33C269.029 237.339 268.803 238.252 268.912 238.361C269.02 238.47 269.399 237.708 269.753 236.669C270.589 234.214 270.324 233.949 269.414 236.33ZM131.199 238.666C131.199 239.133 132.476 241.772 132.628 241.62C132.837 241.41 131.687 238.515 131.394 238.515C131.287 238.515 131.199 238.583 131.199 238.666ZM267.854 240.37C267.475 241.164 267.252 241.901 267.358 242.008C267.465 242.114 267.835 241.524 268.181 240.697C268.997 238.744 268.748 238.495 267.854 240.37ZM132.817 242.166C132.779 242.695 134.056 245.391 134.251 245.196C134.364 245.083 134.092 244.299 133.646 243.453C133.199 242.607 132.826 242.028 132.817 242.166ZM266.271 243.934C265.331 245.904 265.463 246.239 266.446 244.377C266.892 243.531 267.186 242.769 267.1 242.682C267.013 242.596 266.64 243.159 266.271 243.934ZM264.599 247.315C264.258 247.975 264.068 248.515 264.178 248.515C264.288 248.515 264.658 247.975 264.999 247.315C265.34 246.655 265.53 246.115 265.42 246.115C265.31 246.115 264.94 246.655 264.599 247.315ZM175.797 248.917C174.774 250.047 175.209 250.152 176.285 249.035C176.772 248.529 177.025 248.115 176.847 248.115C176.669 248.115 176.196 248.476 175.797 248.917ZM180.999 248.515C181.439 248.704 182.159 248.853 182.599 248.847C183.242 248.838 183.203 248.772 182.399 248.515C181.031 248.077 179.98 248.077 180.999 248.515ZM217.199 248.515C216.395 248.772 216.356 248.838 216.999 248.847C217.439 248.853 218.159 248.704 218.599 248.515C219.618 248.077 218.567 248.077 217.199 248.515ZM223.139 249.031C223.779 249.726 224.079 250.533 224.079 251.562C224.079 252.745 224.163 252.923 224.466 252.381C225.004 251.42 224.227 249.247 223.1 248.559C222.203 248.012 222.203 248.014 223.139 249.031ZM275.78 249.752C275.428 250.433 275.211 251.06 275.298 251.147C275.385 251.234 275.755 250.677 276.121 249.91C276.943 248.185 276.658 248.053 275.78 249.752ZM136.008 249.215C136.013 249.38 136.384 249.965 136.832 250.515L137.647 251.515L137.013 250.215C136.41 248.98 135.988 248.56 136.008 249.215ZM184.599 249.315C186.291 249.746 187.743 249.746 186.399 249.315C185.849 249.139 184.949 248.998 184.399 249.002C183.501 249.009 183.521 249.041 184.599 249.315ZM213.199 249.315C211.855 249.746 213.307 249.746 214.999 249.315C216.077 249.041 216.097 249.009 215.199 249.002C214.649 248.998 213.749 249.139 213.199 249.315ZM263.052 250.215L262.332 251.515L263.157 250.515C263.888 249.628 264.213 248.915 263.885 248.915C263.823 248.915 263.448 249.5 263.052 250.215ZM190.199 250.129C191.783 250.465 195.887 250.65 195.566 250.37C195.474 250.29 193.869 250.127 191.999 250.007C189.626 249.855 189.082 249.892 190.199 250.129ZM205.999 250.115L203.399 250.377L205.599 250.423C206.809 250.448 208.519 250.32 209.399 250.138C211.383 249.728 209.941 249.718 205.999 250.115ZM138.185 252.815C138.534 253.53 138.905 254.115 139.009 254.115C139.407 254.115 139.151 253.478 138.366 252.515L137.551 251.515L138.185 252.815ZM259.886 255.139C258.642 257.014 257.801 258.437 258.018 258.303C258.57 257.962 262.502 252.085 262.308 251.891C262.22 251.803 261.131 253.265 259.886 255.139ZM274.199 252.915C273.858 253.575 273.668 254.115 273.778 254.115C273.888 254.115 274.258 253.575 274.599 252.915C274.94 252.255 275.13 251.715 275.02 251.715C274.91 251.715 274.54 252.255 274.199 252.915ZM175.446 253.43C175.732 254.248 177.613 255.329 178.679 255.287C179.075 255.271 178.7 255.002 177.845 254.689C176.99 254.376 176.044 253.803 175.744 253.417C175.224 252.75 175.209 252.751 175.446 253.43ZM140.726 256.718C141.635 258.04 142.931 259.75 143.606 260.518C144.281 261.286 143.729 260.385 142.38 258.515C139.48 254.496 138.358 253.277 140.726 256.718ZM220.999 254.915C220.228 255.246 220.23 255.26 221.075 255.287C221.557 255.302 222.063 255.135 222.199 254.915C222.491 254.442 222.1 254.442 220.999 254.915ZM180.399 255.715C181.767 256.153 182.818 256.153 181.799 255.715C181.359 255.526 180.639 255.377 180.199 255.383C179.556 255.392 179.595 255.458 180.399 255.715ZM217.799 255.715C216.78 256.153 217.831 256.153 219.199 255.715C220.003 255.458 220.042 255.392 219.399 255.383C218.959 255.377 218.239 255.526 217.799 255.715ZM184.599 256.495C185.833 256.83 188.663 257.033 188.366 256.765C188.274 256.683 187.119 256.515 185.799 256.392C184.221 256.245 183.81 256.28 184.599 256.495ZM212.599 256.515L210.999 256.801L212.399 256.811C213.169 256.816 214.339 256.683 214.999 256.515C216.627 256.101 214.912 256.101 212.599 256.515ZM190.599 257.318C192.65 257.653 197.065 257.832 196.766 257.568C196.674 257.486 194.799 257.323 192.599 257.205C189.828 257.057 189.214 257.091 190.599 257.318ZM205.199 257.315L202.599 257.577L204.799 257.611C206.009 257.63 207.899 257.505 208.999 257.333C211.624 256.925 209.192 256.913 205.199 257.315ZM255.754 260.796C254.906 261.831 254.421 262.549 254.676 262.391C255.22 262.055 257.754 258.915 257.481 258.915C257.379 258.915 256.602 259.762 255.754 260.796ZM144.799 262.24C144.799 262.309 145.384 262.894 146.099 263.54L147.399 264.715L146.224 263.415C145.129 262.203 144.799 261.931 144.799 262.24ZM248.599 268.43C245.519 271.445 243.899 273.159 244.999 272.238C248.191 269.567 254.921 262.871 254.354 262.931C254.269 262.941 251.679 265.415 248.599 268.43ZM150.464 268.28C153.64 271.336 158.799 275.609 158.799 275.183C158.799 275.085 157.516 273.969 155.949 272.702C154.381 271.435 151.845 269.165 150.312 267.657C148.78 266.149 147.408 264.922 147.263 264.93C147.118 264.939 148.558 266.446 150.464 268.28ZM261.577 271.215L260.199 272.715L261.699 271.337C263.095 270.053 263.383 269.715 263.077 269.715C263.011 269.715 262.336 270.39 261.577 271.215ZM139.199 272.625C139.199 272.686 140.594 274.081 142.299 275.725L145.399 278.715L142.409 275.615C139.632 272.736 139.199 272.332 139.199 272.625ZM234.693 279.1C227.75 283.749 224.871 285.793 226.799 284.705C228.826 283.561 242.352 274.515 242.575 274.154C242.947 273.553 243.476 273.22 234.693 279.1ZM253.374 279.415L252.199 280.715L253.499 279.54C254.214 278.894 254.799 278.309 254.799 278.24C254.799 277.931 254.469 278.203 253.374 279.415ZM163.999 278.636C163.999 278.727 165.034 279.466 166.299 280.278C167.564 281.09 168.107 281.336 167.505 280.825C166.317 279.815 163.999 278.368 163.999 278.636ZM168.999 282.02C169.481 282.508 182.663 291.222 183.799 291.803C185.668 292.76 183.408 291.145 176.599 286.659C169.59 282.041 168.153 281.164 168.999 282.02ZM216.883 290.781C215.939 291.35 215.247 291.896 215.346 291.995C215.523 292.172 218.799 290.148 218.799 289.862C218.799 289.636 218.716 289.675 216.883 290.781ZM236.581 291.418C236.475 291.695 236.436 297.86 236.494 305.118L236.6 318.315L236.799 304.615C236.909 297.08 236.948 290.915 236.886 290.915C236.825 290.915 236.687 291.141 236.581 291.418ZM163.378 304.915C163.378 312.285 163.432 315.3 163.498 311.615C163.564 307.93 163.564 301.9 163.498 298.215C163.432 294.53 163.378 297.545 163.378 304.915ZM187.599 293.715C188.369 294.137 189.269 294.476 189.599 294.469C189.929 294.461 189.479 294.122 188.599 293.715C186.493 292.74 185.818 292.74 187.599 293.715ZM211.199 293.715C210.209 294.13 209.602 294.48 209.85 294.493C210.417 294.521 213.199 293.372 213.199 293.11C213.199 292.863 213.311 292.829 211.199 293.715ZM190.999 294.915C191.439 295.104 192.069 295.259 192.399 295.259C192.777 295.259 192.703 295.132 192.199 294.915C191.759 294.726 191.129 294.571 190.799 294.571C190.421 294.571 190.495 294.698 190.999 294.915ZM207.399 294.915C206.895 295.132 206.821 295.259 207.199 295.259C207.529 295.259 208.159 295.104 208.599 294.915C209.103 294.698 209.177 294.571 208.799 294.571C208.469 294.571 207.839 294.726 207.399 294.915ZM194.399 295.715C194.949 295.891 196.029 296.032 196.799 296.029L198.199 296.023L196.599 295.692C194.462 295.25 192.995 295.265 194.399 295.715ZM202.999 295.715L201.399 296.001L202.799 296.018C203.569 296.028 204.649 295.891 205.199 295.715C206.484 295.303 205.298 295.303 202.999 295.715ZM176.045 300.039C177.433 301.092 180.075 302.572 180.251 302.396C180.335 302.313 179.508 301.757 178.413 301.161C177.319 300.566 176.317 299.907 176.188 299.697C176.058 299.487 175.758 299.315 175.521 299.315C175.285 299.315 175.52 299.641 176.045 300.039ZM218.599 302.552C217.059 303.398 215.939 304.095 216.11 304.102C216.443 304.116 220.596 302.024 221.599 301.338C222.954 300.411 221.215 301.115 218.599 302.552ZM186.799 305.315C187.129 305.528 187.669 305.703 187.999 305.703C188.532 305.703 188.532 305.66 187.999 305.315C187.669 305.102 187.129 304.927 186.799 304.927C186.266 304.927 186.266 304.97 186.799 305.315ZM189.799 306.096C190.567 306.444 192.709 306.671 192.366 306.368C192.274 306.287 191.479 306.111 190.599 305.977C189.484 305.808 189.241 305.844 189.799 306.096ZM208.199 306.115C207.11 306.392 207.092 306.422 207.999 306.44C208.549 306.45 209.359 306.304 209.799 306.115C210.785 305.691 209.865 305.691 208.199 306.115ZM194.222 306.968C194.869 307.107 197.379 307.22 199.799 307.22C202.219 307.22 204.729 307.107 205.376 306.968C206.024 306.829 203.514 306.715 199.799 306.715C196.084 306.715 193.574 306.829 194.222 306.968ZM161.799 318.915L160.599 319.22L161.675 319.268C162.267 319.294 162.863 319.135 162.999 318.915C163.135 318.695 163.191 318.536 163.123 318.562C163.055 318.588 162.459 318.747 161.799 318.915ZM237.151 319.027C237.344 319.22 238.018 319.313 238.65 319.234C239.708 319.102 239.68 319.074 238.299 318.883C237.439 318.764 236.949 318.825 237.151 319.027ZM173.799 328.742C173.579 328.832 172.139 329.08 170.599 329.293L167.799 329.68L170.79 329.486C172.435 329.38 173.956 329.118 174.17 328.904C174.573 328.501 174.483 328.462 173.799 328.742ZM225.876 328.948C226.054 329.124 227.549 329.346 229.199 329.442C230.849 329.539 231.659 329.54 230.999 329.445C230.339 329.35 228.844 329.127 227.676 328.95C226.508 328.774 225.698 328.773 225.876 328.948ZM161.399 330.115L159.799 330.401L161.199 330.435C161.969 330.454 163.319 330.32 164.199 330.138L165.799 329.807L164.399 329.818C163.629 329.824 162.279 329.957 161.399 330.115ZM236.199 330.115C236.859 330.283 238.119 330.419 238.999 330.418L240.599 330.415L238.799 330.095C236.356 329.66 234.469 329.675 236.199 330.115ZM156.399 330.915C155.055 331.346 156.507 331.346 158.199 330.915C159.277 330.641 159.297 330.609 158.399 330.602C157.849 330.598 156.949 330.739 156.399 330.915ZM242.199 330.915C243.891 331.346 245.343 331.346 243.999 330.915C243.449 330.739 242.549 330.598 241.999 330.602C241.101 330.609 241.121 330.641 242.199 330.915ZM153.066 331.582C152.419 332.229 153.033 333.139 156.699 336.961C160.974 341.418 169.599 348.252 169.599 347.182C169.599 347.073 168.744 346.457 167.699 345.813C163.706 343.352 157.795 338.061 153.804 333.376C153.021 332.456 153.02 332.435 153.781 331.879C154.375 331.444 154.412 331.315 153.942 331.315C153.607 331.315 153.212 331.435 153.066 331.582ZM246.607 331.872C247.277 332.361 247.301 332.518 246.806 333.172C246.273 333.875 246.282 333.879 246.976 333.246C247.822 332.473 247.558 331.315 246.535 331.315C245.918 331.315 245.925 331.373 246.607 331.872ZM243.784 336.589C242.472 337.95 241.767 338.805 242.216 338.489C243.069 337.89 246.624 334.115 246.335 334.115C246.244 334.115 245.096 335.228 243.784 336.589ZM257.14 338.815C230.886 373.373 179.98 376.804 149.717 346.056C146.239 342.523 142.375 337.963 141.546 336.415C140.997 335.39 140.07 335.534 135.507 337.35C123.261 342.223 112.097 349.811 103.955 358.796C97.257 366.187 92.672 374.787 90.776 383.515C90.346 385.495 89.902 387.52 89.789 388.015L89.584 388.915H199.991H310.399V387.887C310.399 386.5 308.577 379.397 307.559 376.814C300.524 358.965 284.417 344.622 261.805 336.069C260.708 335.654 259.808 335.315 259.805 335.315C259.802 335.315 258.602 336.89 257.14 338.815ZM238.58 341.435C237.25 342.579 235.54 344.022 234.78 344.641C233.696 345.525 233.821 345.482 235.365 344.441C237.217 343.191 241.632 339.34 241.199 339.351C241.089 339.353 239.911 340.292 238.58 341.435ZM230.512 347.2C229.144 348.011 228.087 348.736 228.162 348.811C228.326 348.976 233.199 346.155 233.199 345.896C233.199 345.613 233.145 345.639 230.512 347.2ZM169.999 347.494C169.999 347.604 170.539 347.974 171.199 348.315C171.859 348.656 172.399 348.846 172.399 348.736C172.399 348.626 171.859 348.256 171.199 347.915C170.539 347.574 169.999 347.384 169.999 347.494ZM173.944 349.738C174.684 350.189 175.376 350.472 175.481 350.366C175.683 350.165 173.472 348.914 172.919 348.916C172.743 348.917 173.204 349.287 173.944 349.738ZM182.999 353.315C183.439 353.504 184.069 353.659 184.399 353.659C184.777 353.659 184.703 353.532 184.199 353.315C183.759 353.126 183.129 352.971 182.799 352.971C182.421 352.971 182.495 353.098 182.999 353.315ZM186.199 354.115C186.639 354.304 187.359 354.453 187.799 354.447C188.442 354.438 188.403 354.372 187.599 354.115C186.231 353.677 185.18 353.677 186.199 354.115ZM212.799 354.115L211.799 354.435L212.799 354.447C213.349 354.453 214.159 354.304 214.599 354.115L215.399 353.771L214.599 353.783C214.159 353.789 213.349 353.939 212.799 354.115ZM189.799 354.915C190.459 355.083 191.449 355.22 191.999 355.22C192.891 355.22 192.869 355.187 191.799 354.915C191.139 354.747 190.149 354.61 189.599 354.61C188.707 354.61 188.729 354.643 189.799 354.915ZM208.799 354.915C207.455 355.346 208.907 355.346 210.599 354.915C211.677 354.641 211.697 354.609 210.799 354.602C210.249 354.598 209.349 354.739 208.799 354.915ZM197.281 355.611C198.757 355.688 201.277 355.688 202.881 355.612C204.486 355.536 203.279 355.473 200.199 355.473C197.119 355.472 195.806 355.534 197.281 355.611Z" fill="#4F4F4F"/>
</svg>
