<svg width="401" height="400" viewBox="0 0 401 400" fill="none" xmlns="http://www.w3.org/2000/svg">
<path fill-rule="evenodd" clip-rule="evenodd" d="M200.889 11.7763C177.719 13.3813 161.083 16.9083 145.489 23.5213C139.588 26.0233 139.624 26.0183 137.817 24.5713C131.959 19.8823 125.438 21.5043 117.262 29.6833C106.844 40.1053 101.689 55.6593 101.689 76.6663C101.689 82.8073 101.639 83.2333 100.84 83.9503C97.4733 86.9743 93.6513 95.1183 92.5043 101.712C92.2563 103.142 91.8813 105.287 91.6713 106.479C89.5673 118.421 94.3243 144.474 101.834 162.144C102.438 163.564 102.429 163.596 100.892 165.762C97.3703 170.728 97.4893 169.835 97.4893 191.312V210.312L98.7323 212.912C101.62 218.957 106.664 222.588 113.489 223.535C116.064 223.893 116.395 224.191 116.714 226.445C116.86 227.472 117.334 229.662 117.767 231.312C119.083 236.321 120.308 240.04 122.552 245.845C126.983 257.305 137.276 271.477 147.249 279.847C151.111 283.089 150.971 282.986 157.289 287.191C164.524 292.007 163.689 289.709 163.689 304.808C163.689 318.926 163.633 319.308 161.575 319.319C159.908 319.328 154.7 320.205 148.791 321.47C116.14 328.465 89.6233 349.666 81.1193 375.574C79.9523 379.131 78.4893 385.903 78.4893 387.751V388.912H84.0813C89.5533 388.912 89.6783 388.893 89.8793 388.012C89.9923 387.517 90.4363 385.492 90.8663 383.512C92.3243 376.799 95.2633 370.375 99.7533 364.082C107.538 353.172 120.929 343.184 135.597 337.347C140.16 335.531 141.087 335.387 141.636 336.412C142.465 337.96 146.329 342.52 149.807 346.053C179.888 376.616 230.586 373.425 256.811 339.319C258.251 337.445 259.541 335.779 259.676 335.616C260.317 334.843 272.914 340.586 279.444 344.629C291.054 351.815 301.327 362.7 305.867 372.625C308.137 377.588 310.489 385.354 310.489 387.884V388.912H316.251H322.013L321.825 387.212C321.031 380.028 317.371 368.787 314.413 364.45C314.015 363.866 313.689 363.271 313.689 363.128C313.689 361.912 306.182 352.256 301.93 348.005C287.092 333.166 268.102 324.002 243.689 319.898C241.819 319.583 239.62 319.323 238.803 319.319C236.51 319.308 236.489 319.173 236.489 304.567V291.369L240.126 289.04C253.989 280.165 263.456 270.839 271.003 258.621C276.987 248.934 281.851 236.914 283.72 227.198C284.35 223.92 284.297 223.964 288.289 223.369C296.035 222.215 301.371 217.411 303.305 209.85C304.493 205.205 304.493 177.019 303.305 172.374C302.408 168.867 301.143 166.502 299.107 164.53C297.522 162.993 297.439 162.461 298.3 159.312C301.353 148.136 303.955 132.566 304.315 123.312C304.601 115.936 304.579 116.023 306.454 114.783C308.475 113.445 310.234 110.865 310.891 108.277C311.892 104.33 309.492 89.4523 306.474 80.8853C305.421 77.8983 305.414 77.9283 307.628 75.7713C312.369 71.1533 312.43 66.0523 307.83 58.7733C297.824 42.9393 283.75 31.3943 266.029 24.4833C262.676 23.1763 262.537 23.0693 261.558 21.0743C259.434 16.7433 256.723 15.4863 246.489 14.0833C229.843 11.8013 212.899 10.9443 200.889 11.7763ZM215.375 95.7193C246.617 98.8123 261.764 108.645 270.206 131.312C274.834 143.739 277.224 162.305 272.953 152.658C259.766 122.863 217.62 128.118 209.959 160.512L209.439 162.712H200.09H190.74L190.065 159.712C182.982 128.271 142.234 123.326 127.432 152.112L125.889 155.112L125.759 149.312C125.641 144.05 125.964 139.921 126.886 134.912C129.654 119.867 133.606 109.614 138.754 104.12C142.667 99.9443 143.66 99.6063 155.289 98.4953C157.599 98.2743 161.289 97.9213 163.489 97.7113C168.178 97.2633 180.328 96.2543 186.889 95.7683C193.56 95.2743 210.584 95.2453 215.375 95.7193ZM163.872 140.57C165.549 141.026 168.039 142.054 167.689 142.146C167.579 142.175 164.159 142.254 160.089 142.321C154.408 142.414 151.813 142.636 148.917 143.277C143.33 144.514 142.39 144.21 146.209 142.402C151.52 139.887 158.647 139.148 163.872 140.57ZM249.459 140.687C253.751 141.805 256.492 143.606 253.242 143.172C247.77 142.442 242.068 142.158 237.389 142.381C231.218 142.675 230.547 142.246 235.189 140.973C240.236 139.59 244.887 139.496 249.459 140.687ZM266.157 154.112C275.438 171.184 262.749 192.181 243.089 192.283C227.898 192.362 217.256 182.353 216.605 167.376C216.281 159.928 219.222 150.626 221.091 153.183C221.543 153.801 221.689 153.804 222.936 153.222C228.736 150.516 241.616 148.947 248.322 150.129C253.443 151.032 255.18 151.416 257.455 152.15C260.537 153.143 260.818 153.118 261.375 151.812C262.679 148.753 263.444 149.121 266.157 154.112ZM139.106 151.746C139.907 153.327 140.287 153.718 140.813 153.502C146.232 151.276 154.184 149.712 160.085 149.712C164.721 149.712 170.652 150.551 175.289 151.862C177.159 152.391 179.139 152.926 179.689 153.051C181.717 153.512 183.802 159.97 183.84 165.912C183.983 188.05 158.681 200.584 141.289 186.991C131.755 179.54 128.533 166.456 133.517 155.431C136.197 149.503 137.526 148.627 139.106 151.746ZM149.563 156.372C148.728 157.206 149.438 160.512 150.452 160.512C151.784 160.512 152.089 161.385 152.089 165.192V168.912L153.617 170.44C159.068 175.891 166.489 172.152 166.489 163.955V160.565L167.589 160.439C168.625 160.319 168.689 160.196 168.689 158.312V156.312L159.263 156.205C154.078 156.146 149.713 156.221 149.563 156.372ZM231.453 156.663C230.847 158.241 231.469 160.31 232.589 160.439L233.689 160.565V163.955C233.689 170.33 237.535 173.975 242.781 172.572C246.863 171.48 248.089 169.687 248.089 164.812C248.089 161.371 248.423 160.512 249.761 160.512C250.567 160.512 251.02 159.207 250.82 157.46L250.689 156.312L241.179 156.205C233.284 156.116 231.633 156.193 231.453 156.663ZM210.029 172.133C216.608 203.985 258.308 209.381 272.729 180.246C273.851 177.979 274.886 176.242 275.029 176.385C275.587 176.944 275.29 209.764 274.678 215.112C271.486 242.996 258.708 263.933 235.689 278.995C232.499 281.082 226.655 284.907 222.701 287.496C212.04 294.476 207.726 296.112 199.984 296.112C191.159 296.112 187.951 294.674 169.889 282.625C151.288 270.217 145.589 264.834 138.213 252.712C135.817 248.773 131.289 239.515 131.289 238.553C131.289 238.369 130.947 237.34 130.528 236.265C128.813 231.86 127.244 225.171 126.11 217.435C125.63 214.154 125.518 177.708 125.989 177.719C126.154 177.723 126.723 178.668 127.254 179.819C137.698 202.462 168.411 206.224 183.523 186.712C186.758 182.535 186.539 182.749 186.935 183.373C187.123 183.669 187.28 191.908 187.283 201.681C187.288 217.648 187.356 219.523 187.951 220.181C188.915 221.245 209.388 221.308 210.558 220.25C211.899 219.036 211.636 208.843 210.235 207.741C207.697 205.745 205.689 207.388 205.689 211.461C205.689 215.352 205.756 215.312 199.289 215.312C195.591 215.312 193.695 215.158 193.369 214.832C193.009 214.472 192.889 209.539 192.889 195.094C192.889 174.154 192.995 175.17 190.738 174.366C190.118 174.145 190.03 173.836 190.233 172.605C190.369 171.784 190.482 170.797 190.485 170.412C190.489 169.765 191.211 169.712 200.009 169.712H209.529L210.029 172.133ZM291.975 172.874L292.889 174.23L292.888 191.071C292.886 210.829 292.863 210.929 287.977 212.547C285.786 213.273 285.86 214.059 286.083 192.345L286.289 172.379L288.089 171.894C290.561 171.227 290.927 171.319 291.975 172.874ZM114.583 172.668C114.994 173.289 114.953 211.792 114.541 212.442C114.123 213.101 111.617 212.158 110.16 210.793C108.143 208.903 108.089 208.393 108.089 191.037C108.089 174.751 108.141 174.091 109.549 172.471C110.187 171.736 114.067 171.888 114.583 172.668ZM175.823 242.339C175.248 243.839 176 251.89 176.924 254.112C179.432 260.145 184.408 264.503 190.431 265.944C193.254 266.618 206.759 266.701 209.769 266.062C219.398 264.017 225.181 256.118 224.814 245.512L224.689 241.912L200.378 241.809C178.505 241.716 176.042 241.769 175.823 242.339ZM216.889 250.316C216.889 255.87 210.742 259.121 200.289 259.096C189.991 259.071 184.962 256.575 183.833 250.931L183.589 249.712H200.239C214.826 249.712 216.889 249.787 216.889 250.316ZM225.784 313.812L225.889 328.712L230.289 329.2C249.576 331.34 249.073 331.145 245.592 335.128C221.181 363.055 175.763 362.304 153.675 333.608C151.946 331.363 153.749 330.87 169.471 329.297C171.881 329.055 173.996 328.77 174.171 328.661C174.346 328.553 174.489 321.905 174.489 313.888C174.489 297.682 174.343 298.421 177.171 300.344C190.088 309.124 210.093 308.898 223.645 299.82C224.391 299.321 225.153 298.912 225.34 298.912C225.527 298.912 225.726 305.617 225.784 313.812Z" fill="#211E1C"/>
<path fill-rule="evenodd" clip-rule="evenodd" d="M189.689 96.5345C185.619 96.6795 180.309 97.0115 177.889 97.2715C175.469 97.5315 171.239 97.9085 168.489 98.1085C165.739 98.3075 161.149 98.7465 158.289 99.0825C155.429 99.4195 152.009 99.7005 150.689 99.7065C143.461 99.7425 138.827 103.287 134.468 112.113C132.797 115.495 130.449 122.135 129.94 124.913C129.8 125.683 129.43 127.213 129.119 128.313C127.013 135.762 125.536 152.202 127.089 150.913C127.419 150.639 127.689 150.247 127.689 150.042C127.689 149.485 130.614 145.285 132.359 143.336C135.606 139.711 144.144 134.113 146.425 134.113C146.812 134.113 147.3 133.961 147.509 133.776C151.14 130.559 167.041 132.396 174.883 136.937C182.78 141.511 190.889 153.141 190.889 159.893C190.889 162.053 191.133 162.113 199.936 162.113C209.242 162.113 209.289 162.104 209.289 160.283C209.289 158.403 210.957 153.497 212.701 150.248C225.651 126.117 260.14 126.382 273.079 150.713L274.143 152.713L273.899 150.113C271.619 125.826 258.26 107.344 238.289 100.849C225.887 96.8155 213.252 95.6935 189.689 96.5345ZM151.585 141.297C149.186 141.762 149.268 142.255 151.689 141.925C152.899 141.759 155.419 141.493 157.289 141.332L160.689 141.04L156.889 141.022C154.799 141.013 152.412 141.136 151.585 141.297ZM240.589 141.209C241.854 141.288 243.924 141.288 245.189 141.209C246.454 141.129 245.419 141.064 242.889 141.064C240.359 141.064 239.324 141.129 240.589 141.209ZM155.289 150.891C151.441 151.193 147.24 152.119 142.991 153.603C140.07 154.623 138.906 154.499 138.88 153.164C138.875 152.916 138.515 152.263 138.08 151.713L137.289 150.713L136.501 151.713C128.737 161.56 131.342 178.458 141.842 186.368C158.964 199.268 182.925 187.571 182.925 166.313C182.925 162.384 182.516 160.075 181.187 156.513L180.366 154.313L177.528 153.441C169.891 151.096 162.898 150.294 155.289 150.891ZM236.489 150.914C232.641 151.25 227.073 152.466 224.689 153.491C223.809 153.87 222.389 154.22 221.533 154.269C217.032 154.529 215.802 168.979 219.597 177.02C231.094 201.384 268.489 193.106 268.489 166.197C268.489 159.857 263.217 147.886 262.288 152.116C261.887 153.941 260.911 154.254 258.411 153.357C252.461 151.221 243.896 150.267 236.489 150.914ZM169.034 155.423C169.598 155.836 169.709 156.429 169.61 158.523L169.489 161.113L168.189 161.238L166.889 161.364V164.958C166.889 170.906 164.999 173.021 159.489 173.24C153.732 173.469 150.889 170.519 150.889 164.317C150.889 161.415 150.856 161.313 149.932 161.313C148.392 161.313 147.768 156.891 149.118 155.542C149.959 154.7 167.9 154.594 169.034 155.423ZM251.06 155.542C252.41 156.891 251.786 161.313 250.246 161.313C249.322 161.313 249.289 161.415 249.289 164.317C249.289 170.533 246.449 173.468 240.657 173.24C235.135 173.023 233.289 170.948 233.289 164.958V161.364L231.989 161.238L230.689 161.113L230.568 158.523C230.393 154.806 230.079 154.913 241.137 154.913C249.054 154.913 250.525 155.006 251.06 155.542ZM191.135 171.138C190.63 172.454 190.881 173.657 191.717 173.922C194.047 174.662 194.086 175.009 194.088 195.413L194.089 214.113H199.244H204.399L204.56 211.266C204.793 207.131 207.159 205.16 210.215 206.552C211.908 207.324 212.489 209.262 212.489 214.146C212.489 222.031 212.354 222.113 199.289 222.113C184.853 222.113 186.095 224.018 186.071 201.833L186.053 185.113L184.589 186.913C177.19 196.011 169.131 199.872 157.489 199.895C144.384 199.922 134.011 193.841 127.407 182.26L126.524 180.713L126.542 196.713C126.551 205.513 126.701 214.243 126.875 216.113C127.55 223.357 130.114 233.831 132.528 239.209C132.946 240.141 133.289 241.024 133.289 241.17C133.289 242.056 138.553 251.997 140.673 255.113C147.917 265.763 153.475 270.809 169.889 281.636C175.609 285.409 180.469 288.642 180.689 288.82C181.607 289.564 186.01 292.103 187.099 292.517C187.747 292.763 188.82 293.214 189.483 293.519C194.008 295.6 205.319 295.723 209.889 293.74C214.246 291.85 217.911 289.746 224.889 285.129C229.399 282.144 233.359 279.526 233.689 279.309C234.019 279.093 235.767 277.951 237.574 276.772C257.302 263.894 271.262 240.446 273.688 216.113C273.976 213.225 274.099 205.662 274.018 195.796L273.889 180.079L273.102 181.596C262.39 202.248 235.105 206.537 218.624 190.158C213.91 185.474 210.109 178.319 209.357 172.713L209.089 170.713L200.235 170.605C192.422 170.511 191.351 170.573 191.135 171.138ZM287.989 172.8L286.889 172.966V192.383V211.8L287.941 211.536C292.225 210.461 292.491 209.269 292.48 191.202C292.469 172.101 292.474 172.12 287.989 172.8ZM109.638 173.574C108.685 174.723 108.845 207.575 109.811 209.05C110.558 210.19 112.714 211.709 113.589 211.712C114.437 211.714 114.306 173.482 113.456 173.156C112.241 172.689 110.185 172.915 109.638 173.574ZM225.7 241.926C226.441 242.819 225.947 250.05 224.927 253.214C223.134 258.782 219.648 262.732 214.161 265.415L210.689 267.113H200.689C189.838 267.113 189.178 267.009 184.747 264.597C181.076 262.599 176.753 257.119 175.569 252.962C175.115 251.368 174.713 242.749 175.051 241.867C175.388 240.989 224.97 241.047 225.7 241.926ZM185.055 252.013C187.719 257.185 190.918 258.512 200.689 258.502C208.904 258.493 212.464 257.146 215.048 253.071C217.05 249.913 218.061 250.113 200.082 250.113H184.076L185.055 252.013ZM222.889 301.259C219.722 303.213 214.734 305.453 212.072 306.116C201.899 308.652 191.884 308.14 183.789 304.67C180.791 303.385 179.392 302.686 177.711 301.63C176.733 301.016 175.794 300.513 175.625 300.513C175.456 300.513 175.266 306.978 175.203 314.88C175.14 322.782 174.945 329.391 174.769 329.567C174.593 329.743 172.343 330.016 169.769 330.174C164.775 330.481 154.652 331.817 154.246 332.223C153.823 332.645 155.507 334.641 159.578 338.541C167.764 346.384 178.493 351.98 188.689 353.725C190.229 353.989 192.011 354.365 192.649 354.559C198.702 356.405 215.537 353.864 224.732 349.717C233.177 345.907 248.014 333.904 246.343 332.233C245.911 331.801 235.759 330.473 230.613 330.176C227.931 330.021 225.591 329.748 225.413 329.57C225.235 329.393 224.999 322.7 224.889 314.698L224.689 300.148L222.889 301.259Z" fill="#FBD3AB"/>
<path fill-rule="evenodd" clip-rule="evenodd" d="M206.013 11.2114C209.162 11.2794 214.202 11.2794 217.213 11.2114C220.225 11.1434 217.649 11.0884 211.489 11.0884C205.329 11.0884 202.865 11.1444 206.013 11.2114ZM194.994 11.5994C195.603 11.6914 196.503 11.6894 196.994 11.5944C197.486 11.4994 196.989 11.4234 195.889 11.4264C194.789 11.4294 194.386 11.5074 194.994 11.5994ZM226.189 11.5994C226.794 11.6904 227.784 11.6904 228.389 11.5994C228.994 11.5074 228.499 11.4324 227.289 11.4324C226.079 11.4324 225.584 11.5074 226.189 11.5994ZM190.594 11.9994C191.203 12.0914 192.103 12.0894 192.594 11.9944C193.086 11.8994 192.589 11.8234 191.489 11.8264C190.389 11.8294 189.986 11.9074 190.594 11.9994ZM231.394 11.9994C232.003 12.0914 232.903 12.0894 233.394 11.9944C233.886 11.8994 233.389 11.8234 232.289 11.8264C231.189 11.8294 230.786 11.9074 231.394 11.9994ZM184.394 12.7954C184.891 12.8914 185.611 12.8874 185.994 12.7874C186.376 12.6874 185.969 12.6084 185.089 12.6134C184.209 12.6174 183.896 12.6994 184.394 12.7954ZM238.789 12.7944C239.284 12.8904 240.094 12.8904 240.589 12.7944C241.084 12.6994 240.679 12.6214 239.689 12.6214C238.699 12.6214 238.294 12.6994 238.789 12.7944ZM245.789 13.5884C246.174 13.6884 246.804 13.6884 247.189 13.5884C247.574 13.4874 247.259 13.4054 246.489 13.4054C245.719 13.4054 245.404 13.4874 245.789 13.5884ZM250.989 14.3884C251.374 14.4884 252.004 14.4884 252.389 14.3884C252.774 14.2874 252.459 14.2054 251.689 14.2054C250.919 14.2054 250.604 14.2874 250.989 14.3884ZM256.499 15.4384C257.098 16.0864 259.784 17.7094 259.307 17.1344C258.999 16.7634 258.194 16.1784 257.518 15.8354C256.842 15.4914 256.384 15.3134 256.499 15.4384ZM158.289 18.1124C157.785 18.3294 157.711 18.4564 158.089 18.4564C158.419 18.4564 159.049 18.3014 159.489 18.1124C159.993 17.8954 160.067 17.7684 159.689 17.7684C159.359 17.7684 158.729 17.9234 158.289 18.1124ZM260.888 19.2124C261.411 19.9274 261.902 20.5124 261.978 20.5124C262.282 20.5124 261.29 19.0124 260.634 18.4794C260.202 18.1284 260.299 18.4084 260.888 19.2124ZM122.984 23.9234C121.832 24.6984 120.889 25.4204 120.889 25.5274C120.889 25.6334 121.879 25.0634 123.089 24.2594C125.011 22.9834 125.576 22.5124 125.184 22.5124C125.126 22.5124 124.136 23.1474 122.984 23.9234ZM140.789 24.7414C139.238 25.5824 139.414 25.8734 140.989 25.0714C142.497 24.3054 142.764 24.1064 142.256 24.1284C142.054 24.1374 141.394 24.4134 140.789 24.7414ZM278.089 29.6764C278.639 30.1264 279.269 30.4954 279.489 30.4974C279.917 30.5004 279.194 29.9464 277.889 29.2724C277.358 28.9974 277.425 29.1334 278.089 29.6764ZM114.248 31.8124C112.496 33.8334 111.976 34.5124 112.179 34.5124C112.296 34.5124 113.056 33.7024 113.868 32.7124C115.37 30.8784 115.668 30.1754 114.248 31.8124ZM295.889 43.3124C298.522 45.9524 300.766 48.1124 300.876 48.1124C300.986 48.1124 298.922 45.9524 296.289 43.3124C293.656 40.6724 291.412 38.5124 291.302 38.5124C291.192 38.5124 293.256 40.6724 295.889 43.3124ZM302.244 50.2314C303.092 51.2654 303.869 52.1124 303.971 52.1124C304.244 52.1124 301.71 48.9724 301.166 48.6364C300.911 48.4784 301.396 49.1964 302.244 50.2314ZM304.889 53.7124C305.359 54.3724 305.833 54.9124 305.943 54.9124C306.053 54.9124 305.759 54.3724 305.289 53.7124C304.819 53.0524 304.345 52.5124 304.235 52.5124C304.125 52.5124 304.419 53.0524 304.889 53.7124ZM307.52 57.6124C308.874 59.7534 310.273 61.5464 309.47 60.1124C308.557 58.4804 306.441 55.3124 306.264 55.3124C306.154 55.3124 306.719 56.3474 307.52 57.6124ZM102.182 60.9124C102.182 61.6824 102.264 61.9974 102.365 61.6124C102.465 61.2274 102.465 60.5974 102.365 60.2124C102.264 59.8274 102.182 60.1424 102.182 60.9124ZM101.403 66.7124C101.406 67.8124 101.484 68.2154 101.576 67.6074C101.668 66.9984 101.666 66.0984 101.571 65.6074C101.476 65.1154 101.4 65.6124 101.403 66.7124ZM311.798 67.7124C311.798 68.7024 311.876 69.1074 311.971 68.6124C312.067 68.1174 312.067 67.3074 311.971 66.8124C311.876 66.3174 311.798 66.7224 311.798 67.7124ZM100.888 76.3934C100.779 80.1784 100.829 83.1344 100.999 82.9634C101.17 82.7924 101.259 79.6954 101.198 76.0824L101.087 69.5124L100.888 76.3934ZM307.689 76.1864C306.699 77.0884 306.249 77.6364 306.689 77.4044C307.441 77.0064 310.041 74.4934 309.664 74.5284C309.568 74.5374 308.679 75.2834 307.689 76.1864ZM97.3822 87.2124C96.3462 88.7084 96.0102 89.3124 96.2122 89.3124C96.3062 89.3124 96.8592 88.5924 97.4422 87.7124C98.6252 85.9244 98.5732 85.4914 97.3822 87.2124ZM93.1182 95.9414C92.9702 96.5274 92.9272 97.0844 93.0212 97.1784C93.1162 97.2724 93.3132 96.8704 93.4602 96.2834C93.6082 95.6974 93.6512 95.1404 93.5572 95.0464C93.4622 94.9524 93.2652 95.3544 93.1182 95.9414ZM310.582 96.1124C310.582 96.8824 310.664 97.1974 310.765 96.8124C310.865 96.4274 310.865 95.7974 310.765 95.4124C310.664 95.0274 310.582 95.3424 310.582 96.1124ZM188.089 96.1314C184.679 96.2824 179.888 96.6084 177.441 96.8564C174.995 97.1044 170.675 97.4874 167.841 97.7074C165.008 97.9274 161.249 98.2844 159.489 98.5004C157.729 98.7164 154.129 99.0594 151.489 99.2614C144.067 99.8304 141.179 101.213 137.716 105.854C136.192 107.896 133.256 113.177 132.79 114.712C132.657 115.152 131.977 117.132 131.279 119.112C128.303 127.555 126.479 137.394 126.2 146.512C126.082 150.362 126.082 153.422 126.199 153.312C126.317 153.202 126.994 152.032 127.705 150.712C141.743 124.652 179.797 127.614 189.369 155.512C189.973 157.272 190.472 159.219 190.478 159.838C190.505 162.543 190.395 162.512 200.023 162.512C209.364 162.512 209.689 162.443 209.689 160.474C209.689 159.01 211.127 154.459 212.459 151.71C221.132 133.804 243.065 127.337 260.254 137.616C265.537 140.775 270.258 146.02 273.122 151.912L274.289 154.312L274.431 152.512C274.678 149.372 273.091 141.239 270.959 134.712C260.915 103.972 239.21 93.8674 188.089 96.1314ZM213.089 96.5044C229.142 97.3014 241.544 100.746 250.976 107.027C263.271 115.216 272.199 131.996 273.899 150.112L274.143 152.712L273.079 150.712C260.14 126.381 225.651 126.116 212.701 150.247C210.957 153.496 209.289 158.402 209.289 160.282C209.289 162.103 209.242 162.112 199.936 162.112C191.133 162.112 190.889 162.052 190.889 159.892C190.889 155.933 186.668 147.573 182.368 143.016C175.629 135.874 167.786 132.478 157.889 132.415C153.003 132.385 148.397 132.988 147.509 133.775C147.3 133.96 146.812 134.112 146.425 134.112C144.144 134.112 135.606 139.71 132.359 143.335C130.614 145.284 127.689 149.484 127.689 150.041C127.689 150.246 127.419 150.638 127.089 150.912C125.536 152.201 127.013 135.761 129.119 128.312C129.43 127.212 129.8 125.682 129.94 124.912C130.449 122.134 132.797 115.494 134.468 112.112C136.306 108.39 137.542 106.536 139.944 103.893C142.163 101.453 146.594 99.7274 150.689 99.7064C152.009 99.7004 155.429 99.4194 158.289 99.0824C161.149 98.7464 165.739 98.3074 168.489 98.1084C171.239 97.9084 175.469 97.5314 177.889 97.2714C186.347 96.3624 202.94 96.0004 213.089 96.5044ZM92.5352 98.1794C92.5102 98.5464 92.3852 99.1764 92.2592 99.5794C92.0412 100.274 92.0522 100.275 92.4862 99.5994C92.7372 99.2084 92.8622 98.5784 92.7622 98.1994C92.6002 97.5804 92.5772 97.5784 92.5352 98.1794ZM311.39 101.512C311.394 102.392 311.476 102.705 311.572 102.207C311.668 101.71 311.664 100.99 311.564 100.607C311.464 100.225 311.385 100.632 311.39 101.512ZM311.798 105.712C311.798 106.702 311.876 107.107 311.971 106.612C312.067 106.117 312.067 105.307 311.971 104.812C311.876 104.317 311.798 104.722 311.798 105.712ZM91.0132 108.312C91.0152 109.632 91.0902 110.124 91.1792 109.405C91.2682 108.686 91.2662 107.606 91.1752 107.005C91.0842 106.404 91.0112 106.992 91.0132 108.312ZM305.535 116.061C304.977 116.678 304.881 117.47 304.99 120.561L305.123 124.312L305.206 120.543C305.269 117.684 305.449 116.598 305.951 116.043C306.315 115.641 306.523 115.312 306.413 115.312C306.303 115.312 305.908 115.649 305.535 116.061ZM91.0172 120.912C91.0172 122.342 91.0902 122.927 91.1782 122.212C91.2672 121.497 91.2672 120.327 91.1782 119.612C91.0902 118.897 91.0172 119.482 91.0172 120.912ZM91.7822 128.912C91.7822 129.682 91.8642 129.997 91.9652 129.612C92.0652 129.227 92.0652 128.597 91.9652 128.212C91.8642 127.827 91.7822 128.142 91.7822 128.912ZM304.198 130.512C304.198 131.502 304.276 131.907 304.371 131.412C304.467 130.917 304.467 130.107 304.371 129.612C304.276 129.117 304.198 129.522 304.198 130.512ZM152.689 140.708C150.032 141.206 146.089 142.683 146.089 143.181C146.089 143.308 146.674 143.287 147.389 143.135C151.178 142.328 156.807 141.735 160.889 141.713C165.918 141.685 166.104 141.274 161.412 140.554C157.867 140.009 156.272 140.038 152.689 140.708ZM238.089 140.662C232.89 141.712 233.325 141.957 240.354 141.934C244.058 141.922 248.349 142.067 249.889 142.257C253.295 142.676 253.077 142.063 249.489 141.128C246.091 140.242 241.164 140.041 238.089 140.662ZM157.289 141.331C155.419 141.492 152.899 141.758 151.689 141.924C150.479 142.089 149.622 142.081 149.785 141.906C150.311 141.339 153.003 141.004 156.889 141.021L160.689 141.039L157.289 141.331ZM245.189 141.208C243.924 141.287 241.854 141.287 240.589 141.208C239.324 141.128 240.359 141.063 242.889 141.063C245.419 141.063 246.454 141.128 245.189 141.208ZM135.612 152.4C124.833 170.139 136.993 192.112 157.59 192.112C176.094 192.112 188.506 173.438 181.481 156.169C178.954 149.959 155.439 148.208 142.588 153.273C140.067 154.267 139.712 154.153 138.689 152.027C137.577 149.717 137.216 149.761 135.612 152.4ZM235.689 150.476C232.351 150.854 227.831 151.923 224.324 153.164C222.414 153.839 221.43 154.013 221.144 153.727C219.249 151.832 216.679 160.375 216.978 167.57C217.911 189.984 244.991 200.435 260.891 184.518C270.072 175.328 271.336 162.875 264.229 151.618C263.067 149.776 262.732 149.744 262.07 151.412C261.191 153.629 261.023 153.725 259.163 153.06C252.936 150.835 242.578 149.695 235.689 150.476ZM171.089 151.76C173.069 152.205 175.966 152.961 177.528 153.44L180.366 154.312L181.187 156.512C187.696 173.96 175.698 191.731 157.424 191.707C141.295 191.686 129.007 176.637 132.547 161.242C133.409 157.492 135.036 153.569 136.501 151.712L137.289 150.712L138.08 151.712C138.515 152.262 138.875 152.915 138.88 153.163C138.906 154.498 140.07 154.622 142.991 153.602C151.829 150.516 162.446 149.82 171.089 151.76ZM252.689 151.784C254.669 152.229 257.244 152.937 258.411 153.356C260.911 154.253 261.887 153.94 262.288 152.115C262.648 150.476 263.006 150.594 264.401 152.812C275.039 169.714 262.734 191.736 242.668 191.706C224.443 191.679 212.342 173.451 219.186 156.335C219.931 154.473 220.068 154.353 221.533 154.268C222.389 154.219 223.809 153.869 224.689 153.49C231.202 150.691 244.291 149.893 252.689 151.784ZM149.118 155.541C147.768 156.89 148.392 161.312 149.932 161.312C150.856 161.312 150.889 161.414 150.889 164.316C150.889 170.518 153.732 173.468 159.489 173.239C164.999 173.02 166.889 170.905 166.889 164.957V161.363L168.189 161.237L169.489 161.112L169.61 158.522C169.785 154.805 170.099 154.912 159.041 154.912C151.124 154.912 149.653 155.005 149.118 155.541ZM231.144 155.422C230.58 155.835 230.469 156.428 230.568 158.522L230.689 161.112L231.989 161.237L233.289 161.363V164.957C233.289 170.947 235.135 173.022 240.657 173.239C246.449 173.467 249.289 170.532 249.289 164.316C249.289 161.414 249.322 161.312 250.246 161.312C251.786 161.312 252.41 156.89 251.06 155.541C250.219 154.699 232.278 154.593 231.144 155.422ZM168.515 155.726C170.129 156.59 169.478 160.721 167.689 160.972C166.714 161.108 166.684 161.213 166.489 165.112C166.195 170.983 164.371 172.912 159.115 172.912C153.738 172.912 151.289 170.085 151.289 163.879C151.289 160.998 151.277 160.964 150.189 160.839C148.778 160.676 148.271 156.753 149.542 155.824C150.428 155.176 167.324 155.088 168.515 155.726ZM250.636 155.824C251.907 156.753 251.4 160.676 249.989 160.839C248.901 160.964 248.889 160.998 248.889 163.879C248.889 170.085 246.44 172.912 241.063 172.912C235.807 172.912 233.983 170.983 233.689 165.112C233.494 161.213 233.464 161.108 232.489 160.972C230.756 160.729 230.052 156.639 231.589 155.744C232.678 155.11 249.758 155.182 250.636 155.824ZM99.3172 157.404C99.2712 157.877 100.575 160.96 100.747 160.787C100.834 160.7 100.555 159.837 100.126 158.87C99.6972 157.903 99.3332 157.243 99.3172 157.404ZM299.288 163.913C300.057 164.792 300.844 165.692 301.037 165.912C301.229 166.132 301.2 165.952 300.972 165.512C300.744 165.072 299.957 164.172 299.223 163.513L297.889 162.314L299.288 163.913ZM100.689 164.801C99.2942 166.655 99.1472 167.164 100.424 165.712C101.102 164.942 101.664 164.177 101.673 164.012C101.698 163.54 101.545 163.663 100.689 164.801ZM190.741 171.012C190.274 172.756 190.504 173.44 191.989 174.724L193.489 176.02L193.6 195.266L193.711 214.512H199.3H204.889L204.89 212.212C204.891 208.124 206.885 205.801 209.589 206.739C211.426 207.376 212.088 209.307 212.088 214.032C212.09 221.548 211.817 221.712 199.289 221.712C185.304 221.712 186.489 223.617 186.489 201.132C186.489 184.809 186.358 182.925 185.376 185.08C184.104 187.872 177.123 194 172.689 196.216C163.207 200.956 150.693 200.796 141.625 195.819C135.559 192.49 130.709 187.463 127.242 180.912L126.289 179.112L126.158 180.912C125.615 188.346 126.383 218.142 127.225 222.312C132.205 246.996 143.539 264.577 162.715 277.362C187.749 294.054 187.31 293.803 193.772 295.095C203.028 296.947 210.303 295.151 220.26 288.557C221.958 287.432 223.411 286.512 223.488 286.512C224.181 286.512 243.472 273.125 246.089 270.828C261.222 257.546 270.815 239.474 273.964 218.312C274.665 213.6 275.228 179.091 274.614 178.477C274.39 178.253 273.502 179.578 272.348 181.856C261.385 203.507 230.287 205.903 215.776 186.214C212.718 182.064 209.689 175.116 209.689 172.25C209.689 170.06 209.922 170.112 200.093 170.112C190.983 170.112 190.982 170.112 190.741 171.012ZM303.345 170.512C303.345 170.842 303.5 171.472 303.689 171.912C303.906 172.416 304.033 172.49 304.033 172.112C304.033 171.782 303.878 171.152 303.689 170.712C303.472 170.208 303.345 170.134 303.345 170.512ZM209.357 172.712C210.109 178.318 213.91 185.473 218.624 190.157C235.105 206.536 262.39 202.247 273.102 181.595L273.889 180.078L274.018 195.795C274.099 205.661 273.976 213.224 273.688 216.112C271.262 240.445 257.302 263.893 237.574 276.771C235.767 277.95 234.019 279.092 233.689 279.308C233.359 279.525 229.399 282.143 224.889 285.128C217.911 289.745 214.246 291.849 209.889 293.739C205.319 295.722 194.008 295.599 189.483 293.518C188.82 293.213 187.747 292.762 187.099 292.516C186.01 292.102 181.607 289.563 180.689 288.819C180.469 288.641 175.609 285.408 169.889 281.635C153.475 270.808 147.917 265.762 140.673 255.112C138.553 251.996 133.289 242.055 133.289 241.169C133.289 241.023 132.946 240.14 132.528 239.208C130.114 233.83 127.55 223.356 126.875 216.112C126.701 214.242 126.551 205.512 126.542 196.712L126.524 180.712L127.407 182.259C136.233 197.735 154.515 204.213 170.732 197.609C175.539 195.652 180.758 191.623 184.589 186.912L186.053 185.112L186.071 201.832C186.095 224.017 184.853 222.112 199.289 222.112C212.354 222.112 212.489 222.03 212.489 214.145C212.489 209.261 211.908 207.323 210.215 206.551C207.159 205.159 204.793 207.13 204.56 211.265L204.399 214.112H199.244H194.089L194.088 195.412C194.086 175.008 194.047 174.661 191.717 173.921C191.189 173.753 190.889 173.317 190.889 172.718C190.889 170.427 190.62 170.488 200.235 170.604L209.089 170.712L209.357 172.712ZM109.368 173.241C108.757 174.174 108.689 175.955 108.689 191.129V207.98L109.803 209.589C110.939 211.228 112.308 212.112 113.708 212.112C114.518 212.112 114.979 174.268 114.183 173.07C113.483 172.017 110.09 172.138 109.368 173.241ZM287.604 172.397L286.518 172.562L286.404 192.037C286.33 204.603 286.431 211.683 286.689 211.995C287.384 212.833 290.275 211.218 291.563 209.273L292.689 207.57V191.341C292.689 171.098 292.824 171.602 287.604 172.397ZM291.7 174.212C292.937 176.937 292.897 205.655 291.653 208.201C290.738 210.074 289.565 211.127 287.941 211.535L286.889 211.799V192.382V172.965L287.989 172.799C290.74 172.382 290.896 172.441 291.7 174.212ZM113.456 173.155C114.306 173.481 114.437 211.713 113.589 211.711C112.714 211.708 110.558 210.189 109.811 209.049C108.845 207.574 108.685 174.722 109.638 173.573C110.185 172.914 112.241 172.688 113.456 173.155ZM304.273 191.112C304.273 201.012 304.325 205.005 304.389 199.985C304.452 194.965 304.452 186.865 304.389 181.985C304.325 177.105 304.273 181.212 304.273 191.112ZM96.6732 191.112C96.6732 200.792 96.7252 204.695 96.7892 199.785C96.8522 194.875 96.8522 186.955 96.7892 182.185C96.7252 177.415 96.6732 181.432 96.6732 191.112ZM97.6892 212.265C97.6892 212.694 98.8792 214.912 99.1102 214.912C99.2202 214.912 99.0122 214.327 98.6482 213.612C97.9062 212.152 97.6892 211.848 97.6892 212.265ZM298.31 219.183C297.001 220.416 296.281 221.234 296.71 220.999C297.469 220.585 301.237 216.898 300.872 216.927C300.771 216.935 299.618 217.95 298.31 219.183ZM103.866 220.474C104.805 221.526 108.954 223.535 110.889 223.874C111.659 224.009 111.03 223.671 109.491 223.124C107.953 222.576 105.883 221.56 104.891 220.866C103.647 219.994 103.329 219.873 103.866 220.474ZM114.765 224.398C115.316 224.5 115.705 224.924 115.813 225.541C115.964 226.395 115.98 226.379 115.938 225.417C115.899 224.529 115.692 224.304 114.889 224.273C114.069 224.242 114.047 224.264 114.765 224.398ZM285.389 224.388C285.774 224.488 286.404 224.488 286.789 224.388C287.174 224.287 286.859 224.205 286.089 224.205C285.319 224.205 285.004 224.287 285.389 224.388ZM283.489 229.712C283.337 230.403 283.296 231.053 283.398 231.154C283.5 231.256 283.698 230.765 283.839 230.062C283.98 229.359 284.02 228.71 283.93 228.62C283.839 228.529 283.641 229.021 283.489 229.712ZM120.117 241.404C120.071 241.877 121.375 244.96 121.547 244.787C121.634 244.7 121.355 243.837 120.926 242.87C120.497 241.903 120.133 241.243 120.117 241.404ZM175.051 241.866C174.713 242.748 175.115 251.367 175.569 252.961C176.753 257.118 181.076 262.598 184.747 264.596C189.178 267.008 189.838 267.112 200.689 267.112H210.689L214.161 265.414C219.648 262.731 223.134 258.781 224.927 253.213C225.947 250.049 226.441 242.818 225.7 241.925C224.97 241.046 175.388 240.988 175.051 241.866ZM225.622 243.512C226.471 253.688 220.96 262.664 211.809 266.01C208.943 267.058 191.615 267.05 188.74 266C180.02 262.815 175.289 255.806 175.289 246.071V241.706L200.389 241.809L225.489 241.912L225.622 243.512ZM278.954 243.929C278.284 245.4 278.412 245.714 279.136 244.377C279.475 243.752 279.677 243.166 279.585 243.075C279.494 242.983 279.21 243.368 278.954 243.929ZM123.289 249.055C123.289 249.49 126.076 254.912 126.299 254.912C126.409 254.912 125.846 253.607 125.047 252.012C123.549 249.019 123.289 248.582 123.289 249.055ZM199.961 250.012C214.837 250.113 216.046 250.173 216.214 250.817C216.35 251.334 216.408 251.282 216.443 250.612L216.489 249.712L200.189 249.807L183.889 249.903L199.961 250.012ZM184.089 250.665C184.089 251.094 185.279 253.312 185.51 253.312C185.62 253.312 185.412 252.727 185.048 252.012C184.306 250.552 184.089 250.248 184.089 250.665ZM214.932 253.242C214.424 254.065 213.103 255.407 211.998 256.225C209.669 257.948 209.752 258.211 212.129 256.638C213.607 255.66 216.383 252.273 216.011 251.901C215.926 251.816 215.441 252.419 214.932 253.242ZM273.489 255.312C273.148 255.972 272.958 256.512 273.068 256.512C273.178 256.512 273.548 255.972 273.889 255.312C274.23 254.652 274.42 254.112 274.31 254.112C274.2 254.112 273.83 254.652 273.489 255.312ZM126.504 255.512C126.506 255.732 126.875 256.362 127.325 256.912C127.868 257.576 128.004 257.643 127.729 257.112C127.055 255.807 126.501 255.084 126.504 255.512ZM188.575 256.712C189.384 257.262 190.188 257.712 190.361 257.712C190.533 257.712 190.012 257.262 189.203 256.712C188.394 256.162 187.59 255.712 187.417 255.712C187.245 255.712 187.766 256.162 188.575 256.712ZM271.542 258.503C270.963 259.379 270.489 260.229 270.489 260.392C270.489 260.556 270.731 260.335 271.028 259.901C272.33 257.993 272.967 256.912 272.788 256.912C272.682 256.912 272.121 257.628 271.542 258.503ZM191.489 258.109C192.253 258.44 195.203 258.667 194.856 258.368C194.764 258.289 193.789 258.121 192.689 257.994C191.402 257.845 190.974 257.886 191.489 258.109ZM207.289 258.112C205.922 258.4 205.917 258.407 207.089 258.431C207.749 258.445 208.649 258.301 209.089 258.112C210.051 257.699 209.253 257.699 207.289 258.112ZM128.449 258.712C129.123 260.017 129.677 260.74 129.674 260.312C129.672 260.092 129.303 259.462 128.853 258.912C128.31 258.248 128.174 258.181 128.449 258.712ZM131.255 263.212C131.472 263.597 132.123 264.452 132.701 265.112C133.497 266.02 133.437 265.85 132.453 264.412C131.169 262.534 130.491 261.856 131.255 263.212ZM267.064 265.18C266.448 265.988 266.148 266.523 266.398 266.368C266.91 266.052 268.642 263.712 268.364 263.712C268.265 263.712 267.68 264.373 267.064 265.18ZM134.313 267.294C135.28 268.701 136.888 270.55 136.877 270.243C136.87 270.061 136.195 269.184 135.377 268.294C134.559 267.405 134.08 266.955 134.313 267.294ZM264.063 269.012C263.099 270.167 262.628 270.859 263.015 270.55C263.793 269.93 266.257 266.912 265.985 266.912C265.891 266.912 265.026 267.857 264.063 269.012ZM138.313 272.155C139.33 273.403 140.889 274.761 140.889 274.399C140.889 274.333 140.045 273.476 139.013 272.495C137.365 270.929 137.28 270.887 138.313 272.155ZM257.882 275.812L253.489 280.312L257.989 275.919C262.169 271.838 262.671 271.312 262.382 271.312C262.323 271.312 260.298 273.337 257.882 275.812ZM144.975 278.713C146.012 279.791 146.922 280.592 146.996 280.493C147.07 280.393 146.222 279.511 145.11 278.532L143.089 276.752L144.975 278.713ZM251.053 281.853C249.933 282.788 248.493 283.943 247.853 284.42C247.213 284.897 246.812 285.292 246.963 285.299C247.294 285.315 253.289 280.584 253.289 280.307C253.289 279.999 253.203 280.058 251.053 281.853ZM147.689 281.065C147.689 281.175 148.769 282.096 150.089 283.112C151.409 284.128 152.489 284.869 152.489 284.759C152.489 284.649 151.409 283.728 150.089 282.712C148.769 281.696 147.689 280.955 147.689 281.065ZM242.389 287.941C241.564 288.482 240.889 289.005 240.889 289.104C240.889 289.369 243.652 287.695 243.914 287.272C244.225 286.769 244.087 286.829 242.389 287.941ZM237.333 291.46C237.008 291.85 236.91 295.832 236.989 305.36L237.1 318.712L237.195 305.292C237.263 295.497 237.419 291.742 237.769 291.392C238.033 291.128 238.145 290.912 238.018 290.912C237.891 290.912 237.582 291.158 237.333 291.46ZM162.889 305.032L163.088 318.712L163.194 305.337C163.252 297.982 163.163 291.825 162.994 291.657C162.826 291.489 162.779 297.507 162.889 305.032ZM222.689 300.844C208.98 309.498 189.638 309.368 176.689 300.536C176.029 300.086 175.36 299.716 175.203 299.715C175.046 299.713 174.866 306.267 174.803 314.279C174.74 322.291 174.571 328.964 174.427 329.108C174.282 329.252 172.032 329.534 169.427 329.734C162.146 330.293 154.186 331.455 153.598 332.043C152.637 333.004 161.234 341.387 167.489 345.59C172.77 349.139 182.181 353.024 188.089 354.095C189.519 354.354 191.444 354.734 192.366 354.939C202.177 357.12 219.605 353.585 230.509 347.202C237.253 343.255 248.184 333.247 247.022 332.085C246.374 331.437 238.443 330.278 230.957 329.737C228.244 329.541 225.904 329.26 225.757 329.113C225.609 328.967 225.399 322.205 225.289 314.088L225.089 299.329L222.689 300.844ZM225.413 329.569C225.591 329.747 227.931 330.02 230.613 330.175C235.759 330.472 245.911 331.8 246.343 332.232C248.014 333.903 233.177 345.906 224.732 349.716C215.537 353.863 198.702 356.404 192.649 354.558C192.011 354.364 190.229 353.989 188.689 353.725C178.493 351.98 167.764 346.383 159.578 338.54C155.507 334.64 153.823 332.644 154.246 332.222C154.652 331.816 164.775 330.48 169.769 330.173C172.343 330.015 174.593 329.742 174.769 329.566C174.945 329.39 175.14 322.781 175.203 314.879C175.266 306.977 175.456 300.512 175.625 300.512C175.794 300.512 176.733 301.015 177.711 301.629C179.392 302.685 180.791 303.384 183.789 304.669C191.884 308.139 201.899 308.651 212.072 306.115C214.734 305.452 219.722 303.212 222.889 301.258L224.689 300.147L224.889 314.697C224.999 322.699 225.235 329.392 225.413 329.569ZM160.394 318.795C160.891 318.891 161.611 318.887 161.994 318.787C162.376 318.687 161.969 318.608 161.089 318.613C160.209 318.617 159.896 318.699 160.394 318.795ZM238.989 318.788C239.374 318.888 240.004 318.888 240.389 318.788C240.774 318.687 240.459 318.605 239.689 318.605C238.919 318.605 238.604 318.687 238.989 318.788ZM157.389 319.188C157.774 319.288 158.404 319.288 158.789 319.188C159.174 319.087 158.859 319.005 158.089 319.005C157.319 319.005 157.004 319.087 157.389 319.188ZM146.089 321.312C144.705 321.603 144.703 321.607 145.889 321.653C146.549 321.679 147.359 321.525 147.689 321.312C148.355 320.882 148.134 320.882 146.089 321.312ZM252.889 321.317C253.219 321.528 254.014 321.703 254.656 321.706C256.203 321.714 255.866 321.483 253.889 321.18C252.799 321.013 252.48 321.057 252.889 321.317ZM142.689 322.112C142.185 322.329 142.111 322.456 142.489 322.456C142.819 322.456 143.449 322.301 143.889 322.112C144.393 321.895 144.467 321.768 144.089 321.768C143.759 321.768 143.129 321.923 142.689 322.112ZM140.089 322.912C139.265 323.176 139.23 323.238 139.889 323.266C140.329 323.285 140.959 323.125 141.289 322.912C141.99 322.459 141.503 322.459 140.089 322.912ZM263.489 324.13C264.589 324.56 265.669 324.901 265.889 324.889C266.49 324.856 262.783 323.357 262.089 323.353C261.759 323.351 262.389 323.701 263.489 324.13ZM124.489 328.912C123.719 329.334 123.269 329.678 123.489 329.678C123.709 329.678 124.519 329.334 125.289 328.912C126.059 328.49 126.509 328.146 126.289 328.146C126.069 328.146 125.259 328.49 124.489 328.912ZM116.589 333.138C115.654 333.699 114.889 334.252 114.889 334.367C114.889 334.583 117.588 333.05 118.269 332.448C118.956 331.84 118.316 332.103 116.589 333.138ZM284.089 333.676C284.639 334.126 285.269 334.495 285.489 334.497C285.917 334.5 285.194 333.946 283.889 333.272C283.358 332.997 283.425 333.133 284.089 333.676ZM112.184 335.923C111.032 336.698 110.089 337.42 110.089 337.527C110.089 337.633 111.079 337.063 112.289 336.259C114.211 334.983 114.776 334.512 114.384 334.512C114.326 334.512 113.336 335.147 112.184 335.923ZM107.627 339.098C106.604 339.849 105.645 340.659 105.498 340.898C105.35 341.137 106.233 340.581 107.459 339.664C109.396 338.216 109.98 337.683 109.589 337.722C109.534 337.727 108.651 338.347 107.627 339.098ZM290.889 337.879C290.889 338.158 295.717 341.819 295.868 341.654C295.94 341.576 294.849 340.653 293.444 339.603C292.039 338.552 290.889 337.777 290.889 337.879ZM103.567 342.325C102.949 342.868 102.603 343.312 102.797 343.312C102.991 343.312 103.572 342.862 104.089 342.312C105.284 341.04 105.02 341.046 103.567 342.325ZM99.8702 345.812L98.2892 347.512L99.9892 345.931C101.57 344.46 101.873 344.112 101.57 344.112C101.505 344.112 100.74 344.877 99.8702 345.812ZM302.089 347.512C303.949 349.382 305.561 350.912 305.671 350.912C305.781 350.912 304.349 349.382 302.489 347.512C300.629 345.642 299.017 344.112 298.907 344.112C298.797 344.112 300.229 345.642 302.089 347.512ZM95.8702 349.812L94.2892 351.512L95.9892 349.931C97.5702 348.46 97.8732 348.112 97.5702 348.112C97.5052 348.112 96.7402 348.877 95.8702 349.812ZM92.6642 353.265C90.8282 355.596 89.6042 357.312 89.7772 357.312C90.0362 357.312 93.7752 352.46 93.6182 352.327C93.5472 352.267 93.1182 352.689 92.6642 353.265ZM88.5822 358.812C87.5462 360.308 87.2102 360.912 87.4122 360.912C87.5062 360.912 88.0592 360.192 88.6422 359.312C89.8252 357.524 89.7732 357.091 88.5822 358.812ZM313.704 362.312C313.706 362.532 314.075 363.162 314.525 363.712C315.068 364.376 315.204 364.443 314.929 363.912C314.255 362.607 313.701 361.884 313.704 362.312ZM85.5422 363.812L84.8222 365.112L85.6472 364.112C86.3782 363.225 86.7032 362.512 86.3752 362.512C86.3132 362.512 85.9382 363.097 85.5422 363.812ZM316.917 368.312C316.917 368.532 317.175 369.162 317.489 369.712C317.803 370.262 318.061 370.532 318.061 370.312C318.061 370.092 317.803 369.462 317.489 368.912C317.175 368.362 316.917 368.092 316.917 368.312ZM78.7112 381.134C78.5612 381.937 78.5172 382.674 78.6152 382.772C78.7132 382.869 78.9162 382.293 79.0672 381.49C79.2172 380.687 79.2612 379.95 79.1632 379.852C79.0652 379.755 78.8622 380.331 78.7112 381.134ZM321.717 384.145C321.733 384.897 321.901 385.872 322.092 386.312C322.315 386.827 322.356 386.399 322.207 385.112C321.933 382.734 321.678 382.231 321.717 384.145ZM78.1902 385.512C78.1942 386.392 78.2762 386.705 78.3722 386.207C78.4682 385.71 78.4642 384.99 78.3642 384.607C78.2642 384.225 78.1852 384.632 78.1902 385.512Z" fill="#FBD3AB"/>
<path fill-rule="evenodd" clip-rule="evenodd" d="M192.367 11.9254C189.33 12.1994 186.72 12.5584 186.567 12.7234C186.414 12.8894 187.279 12.9104 188.489 12.7704C189.699 12.6304 193.749 12.3284 197.489 12.0994C205.956 11.5814 207.003 11.4204 201.889 11.4244C199.689 11.4254 195.404 11.6514 192.367 11.9254ZM217.889 11.5484C218.329 11.6184 222.019 11.8724 226.089 12.1114C230.159 12.3514 234.569 12.6544 235.889 12.7854C237.209 12.9174 238.174 12.8994 238.034 12.7474C237.683 12.3644 224.213 11.3254 220.289 11.3784C218.529 11.4024 217.449 11.4784 217.889 11.5484ZM180.289 13.3574C179.189 13.5524 177.686 13.8144 176.948 13.9384C176.211 14.0624 175.696 14.2524 175.804 14.3614C176.022 14.5784 184.554 13.3804 184.842 13.0924C185.123 12.8114 182.5 12.9644 180.289 13.3574ZM239.725 13.0814C240.003 13.3594 250.144 14.5914 250.362 14.3734C250.472 14.2624 249.691 14.0604 248.626 13.9234C247.56 13.7874 245.594 13.5034 244.256 13.2934C241.725 12.8974 239.433 12.7894 239.725 13.0814ZM171.489 14.9764C170.609 15.1864 169.463 15.4464 168.942 15.5544C168.421 15.6624 168.087 15.8434 168.2 15.9564C168.413 16.1704 174.53 15.0044 174.844 14.6904C175.133 14.4014 173.216 14.5644 171.489 14.9764ZM253.889 15.2724C256.763 16.0504 257.881 16.0694 255.872 15.3064C255.252 15.0704 253.922 14.7954 252.917 14.6954C251.34 14.5394 251.474 14.6184 253.889 15.2724ZM163.689 16.9124C162.479 17.3094 161.699 17.6514 161.957 17.6734C162.49 17.7174 167.402 16.5074 167.656 16.2694C168.078 15.8714 165.672 16.2624 163.689 16.9124ZM258.899 17.6314C259.895 18.5054 261.122 20.0964 261.626 21.1664C262.532 23.0924 262.589 23.1324 267.215 25.0294C269.786 26.0844 272.144 27.0604 272.455 27.1974C272.8 27.3504 272.917 27.2804 272.754 27.0174C272.607 26.7804 270.329 25.7284 267.69 24.6804C263.124 22.8654 262.855 22.6944 262.093 21.1214C261.226 19.3284 259.241 17.1104 257.918 16.4524C257.462 16.2264 257.904 16.7564 258.899 17.6314ZM158.289 18.4134C157.189 18.7524 156.475 19.0964 156.703 19.1764C156.931 19.2564 158.101 18.9734 159.303 18.5464C161.896 17.6264 161.153 17.5294 158.289 18.4134ZM153.364 19.9854C152.415 20.3214 151.72 20.6774 151.82 20.7764C152.015 20.9714 156.089 19.7214 156.089 19.4664C156.089 19.1824 155.103 19.3704 153.364 19.9854ZM148.089 21.9254C146.879 22.4444 145.365 23.0594 144.724 23.2924C144.083 23.5254 143.647 23.8034 143.754 23.9114C143.929 24.0854 150.846 21.4684 151.256 21.0734C151.706 20.6384 150.052 21.0834 148.089 21.9254ZM129.089 21.5994C124.298 22.1784 115.804 29.1804 111.241 36.3124C109.198 39.5054 108.829 40.1854 109.029 40.3854C109.141 40.4984 109.587 39.8974 110.019 39.0514C113.075 33.0664 121.43 24.8844 126.757 22.6584C130.032 21.2894 134.733 22.1024 137.816 24.5704C138.655 25.2424 139.437 25.6974 139.553 25.5824C139.828 25.3074 136.633 22.9894 135.089 22.3444C133.676 21.7544 130.783 21.3944 129.089 21.5994ZM141.289 24.9124C140.519 25.3344 140.069 25.6784 140.289 25.6784C140.509 25.6784 141.319 25.3344 142.089 24.9124C142.859 24.4904 143.309 24.1464 143.089 24.1464C142.869 24.1464 142.059 24.4904 141.289 24.9124ZM273.289 27.5024C273.289 27.8184 275.749 28.9864 275.963 28.7714C276.073 28.6614 275.616 28.2884 274.946 27.9414C273.677 27.2854 273.289 27.1824 273.289 27.5024ZM277.289 29.7124C277.839 30.1424 278.469 30.4944 278.689 30.4944C278.909 30.4944 278.639 30.1424 278.089 29.7124C277.539 29.2824 276.909 28.9304 276.689 28.9304C276.469 28.9304 276.739 29.2824 277.289 29.7124ZM279.509 30.8574C279.718 31.0474 281.329 32.1564 283.089 33.3204C297.111 42.5964 311.289 59.9114 311.289 67.7614C311.289 70.3614 309.77 73.6854 307.628 75.7714C306.562 76.8104 305.689 77.8634 305.689 78.1114C305.689 78.8604 306.978 82.5564 307.172 82.3634C307.271 82.2634 307.046 81.2104 306.671 80.0234L305.99 77.8634L308.158 75.6874C311.748 72.0844 312.696 66.8384 310.525 62.5834C305.247 52.2374 294.272 40.2574 283.404 32.9804C280.151 30.8014 278.394 29.8434 279.509 30.8574ZM107.984 41.9754C107.002 43.9534 105.578 47.7344 105.749 47.9064C105.84 47.9974 106.576 46.5134 107.385 44.6084C108.784 41.3144 109.183 39.5574 107.984 41.9754ZM104.758 50.2914C104.39 51.3714 104.102 52.5374 104.118 52.8834C104.134 53.2294 104.496 52.5284 104.923 51.3264C105.35 50.1244 105.638 48.9584 105.563 48.7344C105.488 48.5104 105.126 49.2114 104.758 50.2914ZM103.106 56.6954C102.735 58.3604 102.495 60.0354 102.572 60.4174C102.649 60.7994 103.029 59.5144 103.416 57.5614C104.28 53.2014 104.035 52.5184 103.106 56.6954ZM101.933 63.1954C101.792 63.8094 101.563 68.4964 101.424 73.6094L101.171 82.9064L99.903 84.4094C98.132 86.5074 95.975 89.7324 96.196 89.9524C96.297 90.0534 97.126 88.9904 98.038 87.5904C98.951 86.1904 100.145 84.6234 100.693 84.1084C101.676 83.1854 101.689 83.0854 101.689 76.6274C101.689 73.0264 101.881 68.3594 102.115 66.2564C102.533 62.5114 102.441 60.9774 101.933 63.1954ZM307.469 83.7124C307.598 84.2624 307.898 85.5794 308.135 86.6404C308.373 87.7004 308.66 88.4744 308.773 88.3614C309.033 88.1024 308.115 84.1174 307.61 83.3124C307.339 82.8804 307.3 82.9924 307.469 83.7124ZM309.063 90.3124C309.487 92.8684 310.396 96.3754 310.445 95.6384C310.503 94.7574 309.337 89.2234 309.033 88.9354C308.903 88.8124 308.917 89.4324 309.063 90.3124ZM95.112 91.9184C94.249 93.9844 94.363 94.2184 95.336 92.3744C95.782 91.5284 96.054 90.7444 95.941 90.6314C95.828 90.5184 95.455 91.0974 95.112 91.9184ZM93.929 94.5554C93.074 97.2154 92.838 98.1954 93.011 98.3674C93.122 98.4784 93.491 97.6174 93.832 96.4554C94.359 94.6564 94.447 92.9434 93.929 94.5554ZM188.689 95.6834C187.149 95.8094 192.819 95.9124 201.289 95.9124C209.759 95.9124 215.699 95.7954 214.489 95.6524C211.835 95.3374 192.621 95.3614 188.689 95.6834ZM176.089 96.5234C174.439 96.6914 171.469 96.9684 169.489 97.1394C167.509 97.3104 166.216 97.5254 166.616 97.6164C167.432 97.8014 182.571 96.5634 182.846 96.2884C183.093 96.0414 179.651 96.1614 176.089 96.5234ZM218.922 96.2704C219.232 96.5644 228.179 97.7554 228.402 97.5334C228.523 97.4114 228.457 97.3114 228.256 97.3104C228.054 97.3104 226.269 97.0434 224.289 96.7174C220.757 96.1374 218.592 95.9574 218.922 96.2704ZM310.806 100.112C311.175 104.02 311.155 107.611 310.757 109.112C310.47 110.195 310.49 110.234 310.964 109.512C311.586 108.564 311.554 100.224 310.92 98.3124C310.629 97.4314 310.598 97.9094 310.806 100.112ZM158.489 98.1414C157.059 98.3214 154.449 98.6034 152.689 98.7674C150.929 98.9314 149.9 99.1344 150.402 99.2184C151.396 99.3854 163.752 98.1834 164.043 97.8914C164.3 97.6354 161.522 97.7604 158.489 98.1414ZM229.322 97.8694C229.574 98.1054 234.485 99.3174 235.021 99.2764C235.717 99.2214 230.816 97.7244 229.922 97.7174C229.501 97.7144 229.231 97.7824 229.322 97.8694ZM92.327 100.165C91.564 103.76 91.295 105.516 91.336 106.632C91.385 107.959 91.418 107.82 92.502 101.745C92.879 99.6354 92.728 98.2754 92.327 100.165ZM144.618 99.8424C143.918 100.101 143.198 100.476 143.018 100.676C142.823 100.891 143.015 100.913 143.489 100.729C143.929 100.558 145.099 100.185 146.089 99.9014C147.284 99.5574 147.553 99.3824 146.889 99.3784C146.339 99.3754 145.317 99.5844 144.618 99.8424ZM239.089 100.683C244.206 102.575 244.42 102.639 243.136 101.897C241.666 101.048 236.881 99.3064 236.091 99.3324C235.76 99.3434 237.109 99.9514 239.089 100.683ZM139.103 103.812C136.538 106.456 132.436 112.992 132.992 113.548C133.094 113.651 133.852 112.424 134.677 110.823C136.62 107.049 138.498 104.509 140.819 102.52C141.848 101.638 142.515 100.916 142.303 100.915C142.09 100.913 140.65 102.217 139.103 103.812ZM244.489 102.683C244.489 102.959 247.003 104.132 247.191 103.943C247.286 103.848 246.816 103.488 246.146 103.141C244.898 102.496 244.489 102.383 244.489 102.683ZM247.689 104.247C247.689 104.321 249.174 105.345 250.989 106.523C254.988 109.118 260.82 114.866 263.457 118.812C265.497 121.864 266.393 122.767 264.846 120.212C261.25 114.271 247.689 101.653 247.689 104.247ZM91.037 114.512C91.037 116.822 91.103 117.767 91.184 116.612C91.265 115.457 91.265 113.567 91.184 112.412C91.103 111.257 91.037 112.202 91.037 114.512ZM309.144 112.1C308.56 112.983 307.361 114.183 306.479 114.766C304.57 116.03 304.588 115.956 304.362 123.312C304.252 126.906 304.309 128.503 304.513 127.512C304.695 126.632 304.853 123.81 304.866 121.241L304.889 116.57L306.836 115.041C308.676 113.596 310.747 111.037 310.376 110.666C310.283 110.572 309.728 111.218 309.144 112.1ZM131.342 117.49C129.963 121.302 129.505 122.912 129.8 122.912C129.908 122.912 130.296 121.967 130.661 120.812C131.026 119.657 131.701 117.761 132.159 116.598C132.618 115.435 132.901 114.39 132.787 114.276C132.673 114.163 132.023 115.609 131.342 117.49ZM91.289 122.58C91.289 124.474 92.399 131.761 92.734 132.067C92.882 132.202 92.887 131.592 92.746 130.712C92.605 129.832 92.288 127.402 92.041 125.312C91.564 121.278 91.289 120.278 91.289 122.58ZM265.77 122.412C265.851 122.577 266.511 123.942 267.236 125.446C267.961 126.95 268.641 128.094 268.747 127.987C268.973 127.761 266.188 122.112 265.851 122.112C265.725 122.112 265.689 122.247 265.77 122.412ZM128.711 126.134C128.331 127.698 128.104 129.061 128.207 129.163C128.31 129.266 128.706 128.073 129.089 126.512C129.472 124.951 129.698 123.588 129.593 123.483C129.488 123.378 129.091 124.571 128.711 126.134ZM269.035 129.112C269.546 131.149 271.865 137.384 271.982 137.034C272.125 136.603 269.837 129.871 269.22 128.912C268.916 128.439 268.877 128.482 269.035 129.112ZM127.486 131.571C127.346 132.419 127.041 134.033 126.809 135.158C126.576 136.283 126.47 137.453 126.572 137.758C126.674 138.063 127.075 136.546 127.465 134.387C127.854 132.228 128.075 130.365 127.956 130.246C127.838 130.127 127.626 130.724 127.486 131.571ZM303.374 133.912C303.104 135.892 302.769 138.232 302.63 139.112C302.49 139.992 302.497 140.601 302.646 140.465C303.017 140.126 304.166 132.238 303.999 131.173C303.925 130.7 303.643 131.932 303.374 133.912ZM92.931 133.312C92.875 134.117 93.976 139.332 94.262 139.619C94.387 139.743 94.482 139.59 94.473 139.279C94.446 138.349 92.976 132.661 92.931 133.312ZM150.689 133.307C150.029 133.484 148.973 133.746 148.342 133.89C147.711 134.033 147.273 134.23 147.37 134.326C147.466 134.422 149.062 134.159 150.917 133.74C152.772 133.322 153.749 132.981 153.089 132.982C152.429 132.983 151.349 133.129 150.689 133.307ZM164.795 133.918C174.711 136.213 182.588 142.391 187.257 151.536C188.149 153.283 188.879 154.442 188.879 154.112C188.879 151.638 182.407 142.927 178.196 139.732C173.575 136.228 165.487 132.857 161.897 132.94C161.233 132.955 162.537 133.395 164.795 133.918ZM235.689 133.309C235.139 133.492 234.173 133.757 233.542 133.896C232.911 134.036 232.473 134.23 232.57 134.326C232.666 134.422 234.262 134.159 236.117 133.74C238.319 133.243 239.003 132.979 238.089 132.977C237.319 132.976 236.239 133.125 235.689 133.309ZM249.261 133.706C251.116 134.143 252.708 134.427 252.799 134.336C253.071 134.064 250.034 133.298 247.889 133.098C246.323 132.952 246.62 133.084 249.261 133.706ZM144.542 135.165C143.802 135.488 143.281 135.837 143.384 135.94C143.488 136.044 144.364 135.778 145.331 135.349C146.298 134.92 146.819 134.57 146.489 134.573C146.159 134.575 145.283 134.842 144.542 135.165ZM229.742 135.165C229.002 135.488 228.481 135.837 228.584 135.94C228.688 136.044 229.564 135.778 230.531 135.349C231.498 134.92 232.019 134.57 231.689 134.573C231.359 134.575 230.483 134.842 229.742 135.165ZM254.089 135.005C261.817 138.395 266.466 142.075 270.283 147.823C271.123 149.089 271.889 150.045 271.985 149.949C272.311 149.623 269.01 145.129 266.638 142.666C263.368 139.273 255.582 134.428 253.578 134.539C253.309 134.554 253.539 134.764 254.089 135.005ZM139.597 137.824C134.961 140.756 130.414 145.684 127.705 150.712C126.994 152.032 126.317 153.202 126.199 153.312C126.082 153.422 126.07 150.272 126.174 146.312C126.293 141.764 126.235 139.693 126.016 140.688C125.826 141.555 125.719 145.155 125.779 148.688L125.889 155.112L127.436 152.112C130.469 146.229 134.499 141.638 139.34 138.548C140.578 137.758 141.928 136.898 142.34 136.636C142.752 136.373 142.909 136.15 142.689 136.14C142.469 136.13 141.077 136.887 139.597 137.824ZM226.689 136.636C221.01 140.018 211.78 149.536 212.997 150.754C213.092 150.848 213.946 149.707 214.897 148.219C217.146 144.694 222.045 139.917 225.415 137.959C226.886 137.105 228.089 136.34 228.089 136.259C228.089 135.993 227.503 136.151 226.689 136.636ZM272.089 138.13C272.089 138.957 273.398 143.737 273.576 143.559C273.772 143.362 272.477 137.712 272.235 137.712C272.155 137.712 272.089 137.9 272.089 138.13ZM153.363 140.097C152.193 140.28 151.117 140.551 150.97 140.698C150.823 140.844 151.69 140.817 152.896 140.638C155.607 140.235 159.191 140.22 162.089 140.601C163.577 140.796 163.999 140.768 163.394 140.515C162.088 139.97 155.831 139.708 153.363 140.097ZM238.563 140.097C237.393 140.28 236.317 140.551 236.17 140.698C236.023 140.844 236.89 140.817 238.096 140.638C240.807 140.235 244.391 140.22 247.289 140.601C248.777 140.796 249.199 140.768 248.594 140.515C247.288 139.97 241.031 139.708 238.563 140.097ZM94.489 140.884C94.489 141.727 95.75 145.785 95.95 145.585C96.052 145.482 95.868 144.371 95.541 143.116C94.956 140.876 94.489 139.886 94.489 140.884ZM147.489 141.829C142.733 143.934 142.951 144.483 148.143 143.48C150.179 143.086 151.606 142.684 151.313 142.587C151.02 142.489 149.801 142.628 148.604 142.896C146.32 143.407 145.3 143.201 146.934 142.559C149.306 141.626 150.64 140.943 150.089 140.944C149.759 140.944 148.589 141.342 147.489 141.829ZM164.889 141.312C165.296 141.575 163.946 141.711 160.689 141.736C158.049 141.755 155.079 141.902 154.089 142.061C153.087 142.222 155.66 142.317 159.889 142.275C164.069 142.233 167.579 142.178 167.689 142.153C168.109 142.057 165.565 140.912 164.943 140.918C164.375 140.923 164.368 140.975 164.889 141.312ZM233.389 141.411C230.815 142.237 232.231 142.417 240.989 142.377C247.541 142.348 249.308 142.246 247.689 141.991C246.479 141.801 242.792 141.732 239.496 141.837C234.316 142.002 233.666 141.957 234.696 141.502C236.112 140.879 235.239 140.817 233.389 141.411ZM250.76 141.442C252.561 142.108 252.811 142.506 251.456 142.552C250.296 142.591 250.295 142.594 251.289 142.912C252.676 143.356 254.983 143.387 254.718 142.958C254.385 142.42 250.992 140.908 250.193 140.942C249.797 140.96 250.044 141.178 250.76 141.442ZM302.089 141.868C302.089 141.954 301.808 143.503 301.465 145.311C300.789 148.879 300.937 150.244 301.644 146.949C302.349 143.662 302.608 141.712 302.34 141.712C302.202 141.712 302.089 141.782 302.089 141.868ZM273.714 144.992C273.7 145.366 273.879 146.557 274.111 147.638C274.342 148.719 274.477 150.663 274.411 151.958L274.289 154.312L273.384 152.35C272.886 151.271 272.389 150.479 272.278 150.589C271.994 150.873 274.074 155.312 274.491 155.312C275.212 155.312 275.329 153.568 274.861 149.808C274.394 146.049 273.772 143.44 273.714 144.992ZM96.125 146.541C96.084 147.263 97.309 151.026 97.518 150.817C97.594 150.74 97.32 149.606 96.909 148.295C96.498 146.984 96.146 146.195 96.125 146.541ZM262.426 150.014C262.106 150.398 261.623 151.228 261.353 151.859C260.938 152.831 260.697 152.97 259.776 152.769C259.178 152.638 258.239 152.435 257.689 152.317C257.139 152.199 257.589 152.44 258.689 152.854C261.049 153.741 261.137 153.709 261.949 151.678C262.898 149.306 263.105 149.442 265.646 154.112C266.543 155.762 267.28 156.893 267.283 156.626C267.29 156.011 265.514 152.774 264.094 150.814C263.085 149.423 262.967 149.366 262.426 150.014ZM135.993 151.012C134.723 152.679 132.77 156.526 133.051 156.807C133.17 156.926 133.458 156.52 133.691 155.906C134.431 153.961 137 150.083 137.453 150.226C137.693 150.302 138.249 151.112 138.689 152.027C139.73 154.191 140.007 154.261 142.981 153.116C144.361 152.585 145.266 152.142 144.993 152.132C144.721 152.121 143.551 152.472 142.393 152.912C141.236 153.352 140.247 153.712 140.196 153.712C140.144 153.712 139.646 152.812 139.089 151.712C137.903 149.371 137.341 149.244 135.993 151.012ZM154.297 150.062C153.641 150.202 156.42 150.317 160.471 150.317C164.522 150.317 167.129 150.191 166.263 150.038C164.332 149.695 155.932 149.712 154.297 150.062ZM235.689 150.065C234.919 150.201 237.615 150.313 241.681 150.315C245.747 150.316 248.537 150.202 247.881 150.062C246.362 149.737 237.535 149.739 235.689 150.065ZM299.9 152.723C299.526 154.402 299.305 155.862 299.41 155.966C299.514 156.07 299.905 154.781 300.278 153.101C300.652 151.422 300.873 149.962 300.768 149.858C300.664 149.754 300.273 151.043 299.9 152.723ZM148.159 151.12C146.24 151.588 144.979 152.138 145.922 152.096C146.935 152.05 152.147 150.596 151.289 150.598C150.739 150.599 149.33 150.834 148.159 151.12ZM171.464 151.361C173.211 151.783 174.825 152.067 175.052 151.991C175.622 151.801 170.341 150.502 169.207 150.553C168.702 150.576 169.718 150.939 171.464 151.361ZM229.17 151.199C227.895 151.534 226.935 151.891 227.038 151.994C227.246 152.202 233.289 150.924 233.289 150.672C233.289 150.364 231.468 150.597 229.17 151.199ZM252.889 151.337C256.133 152.14 256.746 152.235 256.396 151.885C256.069 151.559 251.637 150.535 250.689 150.568C250.249 150.583 251.239 150.929 252.889 151.337ZM211.782 153.2C210.704 155.729 209.68 159.253 209.725 160.285C209.747 160.781 209.908 160.551 210.129 159.712C210.852 156.957 211.456 155.085 212.177 153.355C212.58 152.389 212.839 151.529 212.754 151.443C212.668 151.358 212.231 152.148 211.782 153.2ZM97.728 151.912C97.689 152.494 98.685 155.244 99.065 155.605C99.243 155.774 99.254 155.462 99.089 154.912C98.635 153.393 97.758 151.46 97.728 151.912ZM175.779 152.336C176.242 152.798 180.889 154.024 180.889 153.683C180.889 153.487 180.394 153.219 179.789 153.087C179.184 152.954 178.167 152.681 177.529 152.479C176.222 152.065 175.445 152.002 175.779 152.336ZM224.218 152.642C223.518 152.901 222.798 153.269 222.618 153.462C222.244 153.859 223.682 153.475 225.489 152.695C226.988 152.048 225.943 152.005 224.218 152.642ZM218.895 154.901C218.232 156.214 217.697 157.519 217.707 157.801C217.717 158.082 218.246 157.187 218.883 155.812C219.998 153.403 220.564 152.863 221.089 153.712C221.225 153.932 221.506 154.112 221.713 154.112C221.92 154.112 221.729 153.752 221.289 153.312C220.208 152.231 220.26 152.196 218.895 154.901ZM180.919 154.812C180.979 155.423 182.431 158.296 182.459 157.861C182.496 157.302 181.35 154.512 181.084 154.512C180.977 154.512 180.902 154.647 180.919 154.812ZM189.112 155.712C189.239 156.262 189.596 157.612 189.905 158.712L190.467 160.712L190.27 158.988C190.161 158.04 189.804 156.69 189.476 155.988C189.021 155.013 188.935 154.948 189.112 155.712ZM149.542 155.824C148.271 156.753 148.778 160.676 150.189 160.839C151.28 160.964 151.289 160.991 151.317 164.039C151.333 165.729 151.5 167.472 151.689 167.912C151.916 168.441 152.042 167.487 152.061 165.092C152.09 161.355 151.787 160.512 150.417 160.512C149.611 160.512 149.158 159.207 149.358 157.46L149.489 156.312H159.089H168.689V158.312C168.689 160.196 168.625 160.319 167.589 160.439C166.984 160.508 166.489 160.708 166.489 160.883C166.489 161.336 168.63 160.881 168.983 160.352C169.641 159.366 169.316 156.155 168.515 155.726C167.324 155.088 150.428 155.176 149.542 155.824ZM231.589 155.744C230.859 156.169 230.581 159.431 231.195 160.352C231.548 160.881 233.689 161.336 233.689 160.883C233.689 160.708 233.194 160.508 232.589 160.439C231.553 160.319 231.489 160.196 231.489 158.312V156.312H241.089H250.689L250.82 157.46C251.02 159.207 250.567 160.512 249.761 160.512C248.423 160.512 248.089 161.371 248.089 164.812C248.089 169.421 247.034 171.167 243.489 172.423C242.76 172.682 242.572 172.861 243.009 172.88C246.28 173.024 248.889 169.031 248.889 163.879C248.889 160.998 248.901 160.964 249.989 160.839C251.4 160.676 251.907 156.753 250.636 155.824C249.758 155.182 232.678 155.11 231.589 155.744ZM99.351 156.512C99.35 156.842 99.695 157.832 100.118 158.712C100.541 159.592 100.775 159.862 100.639 159.312C100.264 157.807 99.355 155.828 99.351 156.512ZM298.341 159.08C297.456 162.602 297.5 162.984 298.936 164.337C299.623 164.983 300.699 166.322 301.329 167.312C301.959 168.302 302.477 168.929 302.481 168.705C302.492 168.132 300.608 165.355 299.175 163.832L297.971 162.552L298.664 159.7C299.046 158.131 299.276 156.765 299.176 156.665C299.075 156.565 298.7 157.652 298.341 159.08ZM132.275 158.365C132.137 158.996 131.858 160.034 131.656 160.672C131.454 161.31 131.304 162.39 131.323 163.072C131.343 163.81 131.664 162.947 132.117 160.94C132.536 159.085 132.799 157.489 132.703 157.393C132.607 157.296 132.414 157.734 132.275 158.365ZM267.311 157.612C267.391 158.712 268.826 163.326 268.854 162.574C268.891 161.591 267.758 157.312 267.461 157.312C267.366 157.312 267.299 157.447 267.311 157.612ZM182.702 159.512C183.622 163.488 183.622 168.829 182.703 173.312C182.59 173.862 182.77 173.502 183.102 172.512C184.348 168.801 184.193 160.847 182.836 158.902C182.535 158.47 182.499 158.634 182.702 159.512ZM216.873 160.626C216.264 163.35 216.515 171.971 217.237 173.112C217.71 173.858 217.726 173.844 217.472 172.912C216.919 170.882 216.794 163.17 217.278 161.006C217.543 159.82 217.67 158.76 217.56 158.65C217.45 158.54 217.141 159.429 216.873 160.626ZM101.062 161.312C101.797 163.832 101.774 164.096 100.714 165.355C99.303 167.032 98.088 169.461 97.433 171.912C96.861 174.054 96.665 208.406 97.217 209.797C97.367 210.174 97.489 201.894 97.489 191.397C97.489 169.823 97.369 170.73 100.892 165.762C102.418 163.612 102.434 163.554 101.853 162.165C101.136 160.449 100.662 159.937 101.062 161.312ZM190.58 161.912C190.742 162.991 209.278 163.186 209.606 162.112C209.754 161.628 209.687 161.608 209.259 162.012C208.323 162.895 191.452 162.711 190.894 161.812C190.497 161.172 190.47 161.181 190.58 161.912ZM268.982 166.112C268.982 166.882 269.064 167.197 269.165 166.812C269.265 166.427 269.265 165.797 269.165 165.412C269.064 165.027 268.982 165.342 268.982 166.112ZM165.707 168.867C165.119 170.287 163.354 171.777 161.489 172.429C160.715 172.7 160.554 172.86 161.035 172.88C162.907 172.96 166.857 169.416 166.405 168.061C166.316 167.793 166.002 168.156 165.707 168.867ZM233.707 168.087C233.656 169.745 237.3 172.958 239.143 172.88C239.627 172.86 239.468 172.699 238.689 172.423C236.776 171.745 235.335 170.561 234.5 168.98C234.073 168.173 233.716 167.771 233.707 168.087ZM131.333 169.112C131.295 170.419 132.266 174.436 132.72 174.853C132.875 174.996 132.859 174.572 132.685 173.912C132.511 173.252 132.144 171.632 131.868 170.312C131.539 168.736 131.356 168.324 131.333 169.112ZM152.089 169.265C152.089 170.401 156.847 173.487 157.536 172.798C157.652 172.683 157.175 172.463 156.477 172.309C155.779 172.156 154.506 171.329 153.648 170.471C152.791 169.614 152.089 169.071 152.089 169.265ZM268.186 171.155C267.931 172.452 267.612 173.962 267.478 174.512C267.301 175.238 267.339 175.348 267.617 174.912C268.14 174.094 269.032 169.942 268.822 169.31C268.728 169.029 268.442 169.859 268.186 171.155ZM302.714 170.112C302.886 170.662 303.251 172.012 303.524 173.112C303.801 174.225 304.036 174.689 304.055 174.158C304.097 172.987 303.291 170.057 302.777 169.512C302.538 169.26 302.515 169.481 302.714 170.112ZM190.535 170.612C190.57 171.289 190.627 171.339 190.765 170.812C191.001 169.91 209.063 169.716 209.424 170.612C209.545 170.911 209.639 170.83 209.657 170.412C209.687 169.764 208.977 169.712 200.089 169.712H190.489L190.535 170.612ZM288.089 171.894L286.289 172.379L286.083 192.345C285.97 203.327 286.01 212.478 286.171 212.68C287.332 214.135 292.882 209.698 292.887 207.312C292.888 206.982 292.519 207.457 292.069 208.368C290.789 210.954 287.45 213.183 286.629 212.001C286.442 211.732 286.341 202.749 286.404 192.039L286.518 172.566L288.758 172.286C291.2 171.981 291.322 172.063 292.359 174.712C292.735 175.675 292.834 175.746 292.859 175.071C292.95 172.532 290.868 171.144 288.089 171.894ZM109.549 172.471C108.141 174.091 108.089 174.751 108.089 191.037C108.089 208.393 108.143 208.903 110.16 210.793C111.617 212.158 114.123 213.101 114.541 212.442C114.953 211.792 114.994 173.289 114.583 172.668C114.067 171.888 110.187 171.736 109.549 172.471ZM209.717 172.25C209.681 173.184 210.903 177.432 211.139 177.195C211.236 177.098 210.962 175.78 210.531 174.265C210.099 172.751 209.733 171.844 209.717 172.25ZM114.183 173.07C114.979 174.268 114.518 212.112 113.708 212.112C112.308 212.112 110.939 211.228 109.803 209.589L108.689 207.98V191.129C108.689 171.521 108.597 172.046 111.968 172.417C113.024 172.533 114.021 172.827 114.183 173.07ZM190.135 173.025C190.105 173.752 190.331 174.223 190.789 174.385C192.986 175.164 192.889 174.208 192.889 195.094C192.889 209.539 193.009 214.472 193.369 214.832C193.695 215.158 195.591 215.312 199.289 215.312C205.756 215.312 205.689 215.352 205.689 211.461C205.689 208.411 206.612 206.912 208.489 206.912C210.784 206.912 211.289 208.194 211.295 214.041C211.299 217.721 211.428 219.316 211.689 218.912C212.397 217.816 212.174 210.084 211.388 208.516C209.283 204.315 204.891 206.813 204.89 212.212L204.889 214.512H199.3H193.711L193.6 195.266L193.489 176.02L192.037 174.766C191.239 174.076 190.495 173.151 190.384 172.712C190.23 172.103 190.171 172.177 190.135 173.025ZM217.717 174.425C217.677 175.148 218.857 177.878 219.103 177.632C219.214 177.52 218.955 176.637 218.526 175.67C218.097 174.703 217.733 174.143 217.717 174.425ZM180.777 177.762C179.175 181.11 175.518 185.413 172.49 187.511C171.601 188.127 170.963 188.719 171.071 188.827C172.37 190.126 183.163 176.918 182.417 174.941C182.347 174.754 181.609 176.024 180.777 177.762ZM132.912 175.625C132.854 176.908 136.251 182.297 138.649 184.728C142.108 188.233 149.457 192.194 152.287 192.079C152.728 192.062 151.829 191.646 150.289 191.156C142.997 188.837 137.387 184.074 134.062 177.379C133.443 176.132 132.925 175.343 132.912 175.625ZM265.651 178.401C264.335 181.009 259.977 185.934 257.089 188.08C256.429 188.57 256.159 188.836 256.489 188.671C260.236 186.796 268.367 177.057 267.178 175.868C267.087 175.777 266.4 176.917 265.651 178.401ZM274.147 177.143C273.57 178.411 273.574 178.535 274.189 178.412C275.273 178.195 274.983 210.871 273.826 219.312C273.69 220.302 273.704 220.997 273.856 220.857C275.002 219.801 276.051 177.03 274.947 176.348C274.76 176.232 274.4 176.59 274.147 177.143ZM125.712 196.412C125.725 206.697 125.86 215.816 126.012 216.676C126.164 217.535 126.23 210.245 126.158 200.476C126.085 190.706 126.085 181.902 126.158 180.912L126.289 179.112L127.242 180.912C130.031 186.182 134.347 191.14 138.708 194.083C141.437 195.925 141.272 195.372 138.488 193.344C133.658 189.827 129.638 184.987 127.254 179.819C126.723 178.668 126.154 177.723 125.989 177.719C125.824 177.715 125.699 186.127 125.712 196.412ZM211.312 178.023C211.169 181.202 219.77 191.859 224.623 194.515C226.598 195.596 226.303 195.278 223.111 192.891C218.408 189.372 214.602 184.7 212.282 179.596C211.761 178.45 211.325 177.742 211.312 178.023ZM219.289 178.449C219.289 182.336 232.757 192.331 237.655 192.079C238.004 192.062 237.029 191.646 235.489 191.156C229.362 189.207 222.776 184.194 220.511 179.756C219.706 178.177 219.289 177.732 219.289 178.449ZM272.525 180.812C269.544 186.948 263.929 192.629 257.605 195.908C256.788 196.331 256.186 196.742 256.266 196.822C256.992 197.548 264.192 192.396 267.558 188.743C269.983 186.112 274.082 179.572 273.606 179.096C273.515 179.004 273.028 179.777 272.525 180.812ZM186.142 183.373C185.894 183.669 184.715 185.172 183.523 186.712C179.678 191.676 174.075 195.707 168.489 197.527C167.279 197.921 166.483 198.309 166.721 198.389C167.34 198.596 172.546 196.414 175.175 194.845C177.947 193.191 183.549 187.955 184.889 185.767C185.439 184.869 186.024 184.129 186.189 184.123C186.354 184.117 186.492 191.807 186.495 201.212C186.499 211.561 186.654 218.549 186.889 218.912C187.143 219.304 187.277 213.35 187.277 201.712C187.277 184.462 187.136 182.186 186.142 183.373ZM168.759 189.591C168.137 189.917 167.715 190.272 167.822 190.378C168.031 190.588 170.489 189.412 170.489 189.102C170.489 188.804 169.983 188.947 168.759 189.591ZM253.959 189.591C253.337 189.917 252.915 190.272 253.022 190.378C253.231 190.588 255.689 189.412 255.689 189.102C255.689 188.804 255.183 188.947 253.959 189.591ZM164.089 191.364C162.317 191.983 162.162 192.1 163.291 191.964C164.759 191.786 167.931 190.571 166.889 190.586C166.559 190.59 165.299 190.94 164.089 191.364ZM249.289 191.364C247.517 191.983 247.362 192.1 248.491 191.964C249.959 191.786 253.131 190.571 252.089 190.586C251.759 190.59 250.499 190.94 249.289 191.364ZM155.602 192.407C156.765 192.488 158.565 192.488 159.602 192.405C160.64 192.323 159.689 192.257 157.489 192.258C155.289 192.259 154.44 192.326 155.602 192.407ZM240.802 192.407C241.965 192.488 243.765 192.488 244.802 192.405C245.84 192.323 244.889 192.257 242.689 192.258C240.489 192.259 239.64 192.326 240.802 192.407ZM141.289 195.502C141.289 195.807 143.745 196.989 143.951 196.783C144.054 196.68 143.56 196.307 142.852 195.954C141.465 195.262 141.289 195.211 141.289 195.502ZM226.489 195.502C226.489 195.807 228.945 196.989 229.151 196.783C229.254 196.68 228.76 196.307 228.052 195.954C226.665 195.262 226.489 195.211 226.489 195.502ZM145.889 197.712C146.769 198.119 147.849 198.458 148.289 198.464C148.729 198.47 148.189 198.123 147.089 197.694C144.575 196.712 143.756 196.724 145.889 197.712ZM231.089 197.683C231.969 198.106 233.049 198.453 233.489 198.454C233.976 198.455 233.741 198.254 232.889 197.941C230.411 197.03 229.442 196.891 231.089 197.683ZM253.015 197.708C248.604 199.277 241.056 199.708 235.489 198.71C234.303 198.497 234.3 198.5 235.289 198.972C238.078 200.304 250.241 199.476 254.289 197.679C256.374 196.753 255.654 196.77 253.015 197.708ZM150.089 198.996C151.445 199.639 163.918 199.626 165.289 198.98C166.125 198.586 165.929 198.558 164.089 198.811C161.274 199.196 153.685 199.2 151.089 198.817C149.384 198.565 149.237 198.592 150.089 198.996ZM303.371 209.615C301.837 216.93 296.031 222.222 288.289 223.365C286.529 223.625 284.892 224.034 284.65 224.275C284.158 224.766 283.109 229.265 283.415 229.572C283.524 229.68 283.735 229.171 283.884 228.441C284.761 224.139 284.778 224.112 286.604 224.107C294.399 224.085 302.787 217 303.914 209.487C304.308 206.859 303.931 206.948 303.371 209.615ZM97.707 211.225C97.605 214.084 105.187 222.53 107.835 222.508C108.085 222.506 107.208 221.818 105.886 220.98C102.852 219.055 100.294 216.194 98.85 213.112C98.232 211.792 97.717 210.943 97.707 211.225ZM126.489 219.94C126.489 221.024 127.806 227.328 127.994 227.141C128.195 226.939 126.878 219.312 126.642 219.312C126.558 219.312 126.489 219.595 126.489 219.94ZM189.289 221.312C189.633 221.534 193.9 221.7 199.289 221.7C204.678 221.7 208.945 221.534 209.289 221.312C209.685 221.056 206.278 220.924 199.289 220.924C192.3 220.924 188.893 221.056 189.289 221.312ZM272.742 224.893C272.352 226.706 272.116 228.272 272.216 228.372C272.468 228.624 273.785 222.599 273.599 222.043C273.517 221.797 273.131 223.079 272.742 224.893ZM108.489 222.637C108.489 223.021 112.76 224.112 114.263 224.112C115.078 224.112 115.779 224.331 115.863 224.612C115.945 224.887 116.203 225.922 116.436 226.912L116.861 228.712L116.67 226.722C116.431 224.223 116.091 223.923 112.889 223.384C111.459 223.144 109.884 222.828 109.389 222.683C108.894 222.537 108.489 222.517 108.489 222.637ZM128.125 228.05C128.071 228.847 129.391 233.179 129.545 232.712C129.618 232.492 129.337 231.232 128.92 229.912C128.503 228.592 128.146 227.754 128.125 228.05ZM116.933 229.312C116.86 230.422 119.649 239.886 119.958 239.577C120.058 239.476 119.687 237.891 119.133 236.053C118.579 234.215 117.866 231.812 117.549 230.712C117.232 229.612 116.955 228.982 116.933 229.312ZM270.93 231.912C270.412 233.672 269.382 236.628 268.642 238.482C267.901 240.335 267.373 241.93 267.469 242.025C267.876 242.433 272.191 230.326 271.994 229.329C271.927 228.99 271.448 230.152 270.93 231.912ZM282.33 232.648C281.954 233.932 281.718 235.192 281.805 235.448C281.893 235.703 282.273 234.861 282.648 233.576C283.024 232.292 283.26 231.032 283.173 230.776C283.085 230.521 282.705 231.363 282.33 232.648ZM129.737 233.912C129.749 234.752 131.208 238.205 131.259 237.512C131.275 237.292 130.937 236.212 130.507 235.112C130.078 234.012 129.731 233.472 129.737 233.912ZM280.145 239.54C278.562 243.907 278.25 244.997 278.853 244.063C279.533 243.009 281.726 236.824 281.578 236.378C281.502 236.152 280.858 237.575 280.145 239.54ZM131.317 238.363C131.277 239.006 132.499 241.836 132.721 241.614C132.823 241.512 132.555 240.637 132.126 239.67C131.697 238.703 131.333 238.115 131.317 238.363ZM120.148 240.512C120.148 240.842 120.482 241.832 120.889 242.712C121.296 243.592 121.63 244.042 121.63 243.712C121.63 243.382 121.296 242.392 120.889 241.512C120.482 240.632 120.148 240.182 120.148 240.512ZM175.317 246.212C175.333 248.687 175.473 251.035 175.628 251.429C175.784 251.824 175.907 249.8 175.9 246.932C175.894 244.063 175.754 241.715 175.589 241.714C175.424 241.713 175.302 243.737 175.317 246.212ZM224.689 246.212C224.689 248.687 224.55 251.432 224.381 252.312C224.185 253.329 224.207 253.694 224.442 253.312C225.438 251.692 225.978 242.134 225.089 241.843C224.838 241.761 224.689 243.391 224.689 246.212ZM132.907 242.163C132.869 242.692 134.146 245.388 134.341 245.193C134.454 245.08 134.182 244.296 133.736 243.45C133.289 242.604 132.916 242.025 132.907 242.163ZM265.598 245.421C264.784 246.99 264.19 248.346 264.278 248.434C264.366 248.522 265.091 247.297 265.889 245.712C266.687 244.127 267.281 242.771 267.209 242.699C267.137 242.627 266.412 243.852 265.598 245.421ZM121.689 244.788C121.69 245.409 126.814 255.633 128.246 257.872C129.04 259.112 129.689 260.217 129.689 260.326C129.689 260.662 133.725 266.157 136.142 269.112C142.233 276.559 148.23 281.816 157.989 288.264L163.289 291.765L163.383 305.039L163.478 318.312L163.589 305.16C163.671 295.473 163.575 291.857 163.226 291.437C162.966 291.123 160.488 289.351 157.721 287.501C150.92 282.953 151.144 283.116 147.249 279.847C140.355 274.061 133.905 266.426 128.886 258.112C126.305 253.838 122.505 246.3 122.495 245.436C122.492 245.174 122.309 244.848 122.089 244.712C121.869 244.576 121.689 244.61 121.689 244.788ZM277.507 246.33C277.161 247.158 276.96 247.917 277.06 248.017C277.16 248.117 277.525 247.521 277.871 246.694C278.217 245.866 278.418 245.107 278.318 245.007C278.218 244.907 277.853 245.503 277.507 246.33ZM134.489 245.871C134.489 245.959 135.002 246.994 135.629 248.171C140.333 257.008 146.363 264.745 153.289 270.832C157.589 274.61 185.441 293.293 185.977 292.758C186.079 292.655 185.614 292.287 184.943 291.94C183.792 291.345 177.328 287.105 162.715 277.362C151.279 269.737 142.902 260.67 136.708 249.212C135.044 246.133 134.489 245.298 134.489 245.871ZM274.941 251.657C267.238 266.932 256.282 278.697 240.126 289.04L236.489 291.369L236.581 304.84L236.673 318.312L236.881 304.932L237.089 291.552L243.101 287.532C250.678 282.465 254.015 279.731 259.291 274.265C262.954 270.47 270.489 261.091 270.489 260.326C270.489 260.178 271.01 259.3 271.646 258.375C273.295 255.978 277.022 248.912 276.77 248.66C276.654 248.544 275.831 249.892 274.941 251.657ZM263.075 250.212L262.441 251.512L263.256 250.512C264.041 249.549 264.297 248.912 263.899 248.912C263.795 248.912 263.424 249.497 263.075 250.212ZM183.864 250.831C184.234 253.131 186.769 256.236 189.289 257.476C189.856 257.755 188.773 256.771 187.868 256.185C186.977 255.607 184.797 252.527 184.238 251.055C183.667 249.55 183.658 249.544 183.864 250.831ZM216.535 250.179C216.51 250.546 216.385 251.176 216.259 251.579C216.041 252.274 216.052 252.275 216.486 251.599C216.737 251.208 216.862 250.578 216.762 250.199C216.6 249.58 216.577 249.578 216.535 250.179ZM259.557 255.67C253.013 265.344 246.977 270.996 233.989 279.61C229.864 282.346 226.489 284.669 226.489 284.772C226.489 285.02 226.437 285.053 234.468 279.799C243.486 273.9 247.689 270.439 253.296 264.293C256.665 260.6 262.776 252.266 262.395 251.885C262.304 251.794 261.027 253.497 259.557 255.67ZM176.089 252.955C176.089 256.52 184.804 265.743 188.138 265.706C188.441 265.702 187.473 265.027 185.987 264.206C181.67 261.819 178.623 258.463 177.096 254.412C176.387 252.53 176.089 252.099 176.089 252.955ZM214.774 254.055C214.207 254.912 213.091 256.016 212.295 256.508C211.499 257.001 210.941 257.498 211.057 257.613C211.173 257.729 211.897 257.343 212.667 256.756C214.198 255.588 216.317 253.007 216.003 252.693C215.895 252.584 215.342 253.197 214.774 254.055ZM223.09 255.628C220.962 259.761 217.855 262.797 213.713 264.789C212.71 265.271 212.12 265.676 212.402 265.689C215.278 265.818 225.489 255.779 223.998 254.288C223.919 254.209 223.51 254.811 223.09 255.628ZM194.289 258.93C196.907 259.338 204.202 259.339 206.489 258.932C207.665 258.723 205.517 258.613 200.289 258.616C195.014 258.618 192.97 258.725 194.289 258.93ZM189.489 266.189C190.622 266.929 209.926 266.943 211.089 266.204C211.779 265.765 211.669 265.738 210.289 266.004C208.168 266.412 192.328 266.401 190.289 265.989C188.893 265.707 188.791 265.733 189.489 266.189ZM224.833 285.735C223.939 286.514 223.935 286.535 224.767 286.132C225.249 285.899 225.755 285.529 225.89 285.31C226.284 284.674 225.852 284.847 224.833 285.735ZM222.664 286.897C222.453 287.108 220.637 288.323 218.629 289.597C216.621 290.87 214.643 292.126 214.233 292.388C213.824 292.651 213.697 292.876 213.951 292.888C214.205 292.901 216.365 291.633 218.751 290.069C223.429 287.003 224.078 286.512 223.449 286.512C223.229 286.512 222.876 286.685 222.664 286.897ZM187.689 293.712C188.459 294.134 189.359 294.473 189.689 294.466C190.019 294.458 189.569 294.119 188.689 293.712C186.583 292.737 185.908 292.737 187.689 293.712ZM211.089 293.712C210.209 294.119 209.692 294.466 209.94 294.482C210.499 294.519 213.289 293.373 213.289 293.107C213.289 292.789 212.78 292.929 211.089 293.712ZM190.524 294.68C191.837 295.993 202.034 296.498 206.538 295.474C210.288 294.621 209.788 294.294 205.948 295.087C202.163 295.869 197.528 295.876 193.889 295.105C190.979 294.489 190.239 294.395 190.524 294.68ZM223.789 299.708C223.074 300.144 222.489 300.608 222.489 300.739C222.489 300.87 223.117 300.589 223.884 300.115L225.279 299.253L225.389 313.782L225.499 328.312L225.594 313.612C225.646 305.527 225.554 298.913 225.389 298.913C225.224 298.914 224.504 299.272 223.789 299.708ZM174.584 313.812L174.679 328.312L174.789 314.012C174.849 306.147 175.032 299.713 175.194 299.715C175.356 299.716 176.029 300.086 176.689 300.536C179.65 302.555 187.81 306.124 188.314 305.62C188.427 305.507 187.568 305.107 186.405 304.732C183.745 303.874 179.16 301.695 177.171 300.344C174.337 298.417 174.478 297.682 174.584 313.812ZM218.689 302.549C217.149 303.395 216.016 304.092 216.171 304.099C216.645 304.121 221.696 301.624 221.923 301.256C222.282 300.676 221.604 300.947 218.689 302.549ZM212.889 304.966C211.697 305.477 211.479 305.659 212.245 305.503C213.704 305.207 216.091 304.174 215.289 304.186C214.959 304.191 213.879 304.542 212.889 304.966ZM188.931 305.864C190.497 307.581 209.26 307.584 210.847 305.867C210.98 305.724 210.369 305.738 209.489 305.9C202.103 307.256 198.317 307.251 190.289 305.873C189.409 305.722 188.798 305.718 188.931 305.864ZM158.735 319.146C156.56 319.443 154.67 319.807 154.535 319.954C154.4 320.102 155.099 320.107 156.089 319.967C157.079 319.827 159.02 319.595 160.402 319.453C161.784 319.31 163.01 319.04 163.125 318.853C163.241 318.665 163.191 318.533 163.013 318.559C162.835 318.585 160.91 318.849 158.735 319.146ZM237.052 318.853C237.168 319.04 238.484 319.309 239.976 319.449C241.468 319.59 243.499 319.821 244.489 319.963C245.479 320.106 246.184 320.107 246.055 319.966C245.926 319.826 243.946 319.444 241.655 319.119C236.709 318.416 236.785 318.42 237.052 318.853ZM149.975 320.7C148.703 320.978 147.548 321.32 147.409 321.459C146.994 321.873 148.112 321.723 151.289 320.937C154.649 320.106 153.576 319.913 149.975 320.7ZM249.289 320.937C252.448 321.718 253.584 321.873 253.177 321.467C252.854 321.144 248.114 320.132 247.089 320.168C246.649 320.183 247.639 320.529 249.289 320.937ZM142.755 322.386C139.782 323.295 140.818 323.442 143.936 322.554C145.45 322.122 146.239 321.775 145.689 321.782C145.139 321.789 143.819 322.061 142.755 322.386ZM256.857 322.533C258.489 322.961 259.897 323.237 259.986 323.148C260.235 322.9 255.891 321.709 254.827 321.734C254.311 321.746 255.224 322.106 256.857 322.533ZM136.889 324.165C135.679 324.61 133.519 325.431 132.089 325.987C130.659 326.543 129.059 327.164 128.534 327.366C128.008 327.569 127.663 327.819 127.766 327.923C127.87 328.026 129.11 327.637 130.522 327.057C131.934 326.478 134.799 325.408 136.889 324.679C138.979 323.951 140.329 323.355 139.889 323.355C139.449 323.354 138.099 323.719 136.889 324.165ZM260.489 323.466C260.489 323.718 264.562 324.972 264.755 324.78C264.852 324.682 264.081 324.312 263.039 323.957C261.131 323.307 260.489 323.183 260.489 323.466ZM266.289 325.495C268.333 326.378 269.586 326.553 267.889 325.719C267.009 325.287 266.019 324.943 265.689 324.955C265.359 324.967 265.629 325.21 266.289 325.495ZM274.275 328.875C276.907 330.195 279.13 331.204 279.215 331.119C279.481 330.853 272.218 327.226 270.446 326.739C269.92 326.595 271.643 327.556 274.275 328.875ZM122.745 330.146C111.366 335.926 102.082 343.082 93.722 352.512C88.138 358.811 79.953 373.931 80.119 377.639C80.136 378.009 80.667 376.816 81.299 374.988C87.614 356.745 101.664 341.692 122.689 330.648C125.329 329.261 127.309 328.13 127.089 328.134C126.869 328.138 124.914 329.043 122.745 330.146ZM173.889 328.762C173.669 328.839 172.229 329.076 170.689 329.289L167.889 329.676L171.028 329.522C173.889 329.381 174.904 329.158 174.456 328.767C174.364 328.687 174.109 328.685 173.889 328.762ZM225.689 328.983C225.689 329.352 229.56 329.81 231.289 329.645C232.198 329.559 231.461 329.372 229.189 329.112C227.264 328.892 225.689 328.834 225.689 328.983ZM159.815 330.316C156.404 330.849 154.299 331.469 157.089 331.118C157.969 331.007 160.309 330.718 162.289 330.476C164.269 330.233 165.964 329.962 166.056 329.873C166.369 329.571 163.094 329.803 159.815 330.316ZM234.522 329.873C234.614 329.962 236.309 330.233 238.289 330.476C240.269 330.718 242.609 331.031 243.489 331.171C244.369 331.311 244.99 331.315 244.868 331.181C244.746 331.046 242.813 330.661 240.571 330.324C236.598 329.728 234.186 329.548 234.522 329.873ZM153.038 331.9C152.411 333.533 161.777 342.448 168.719 346.825C173.088 349.58 183.442 353.994 184.617 353.603C184.835 353.53 183.457 352.964 181.554 352.345C172.342 349.348 163.029 343.351 156.466 336.191C153.241 332.672 152.999 332.201 154.171 331.731L155.089 331.363L154.176 331.337C153.675 331.323 153.162 331.577 153.038 331.9ZM246.389 331.724C247.755 332.274 247.611 332.506 242.989 337.208C238.566 341.707 234.964 344.596 230.58 347.16C229.2 347.967 228.143 348.699 228.23 348.787C228.85 349.406 238.251 342.644 242.161 338.765C247.502 333.468 248.755 331.272 246.402 331.337L245.489 331.363L246.389 331.724ZM279.689 331.478C279.689 331.569 280.814 332.273 282.189 333.043C284.538 334.359 290.373 338.071 291.416 338.913C291.676 339.123 293.3 340.406 295.024 341.764C301.155 346.593 307.379 353.405 311.885 360.218C312.724 361.486 313.491 362.443 313.59 362.345C314.244 361.691 307.168 352.728 301.717 347.306C297.095 342.707 286.74 334.512 285.552 334.512C285.452 334.512 284.186 333.792 282.737 332.912C280.186 331.362 279.689 331.128 279.689 331.478ZM257.23 338.812C230.976 373.37 180.07 376.801 149.807 346.053C146.329 342.52 142.465 337.96 141.636 336.412C141.087 335.387 140.16 335.531 135.597 337.347C123.351 342.22 112.187 349.808 104.045 358.793C97.347 366.184 92.762 374.784 90.866 383.512C90.436 385.492 89.992 387.517 89.879 388.012L89.674 388.912H200.081H310.489V387.884C310.489 386.497 308.667 379.394 307.649 376.811C300.614 358.962 284.507 344.619 261.895 336.066C260.798 335.651 259.898 335.312 259.895 335.312C259.892 335.312 258.692 336.887 257.23 338.812ZM223.889 350.512C220.608 352.089 219.977 352.615 222.74 351.471C225.678 350.254 227.689 349.291 227.689 349.102C227.689 348.75 227.102 348.968 223.889 350.512ZM217.555 352.786C216.492 353.112 215.707 353.464 215.812 353.568C216.025 353.781 220.489 352.555 220.489 352.284C220.489 352.007 219.618 352.156 217.555 352.786ZM185.712 353.844C185.987 354.149 191.43 355.312 192.582 355.312C194.022 355.312 193.171 354.976 190.679 354.559C189.364 354.34 187.659 354.034 186.889 353.879C186.119 353.724 185.589 353.708 185.712 353.844ZM210.289 354.524C208.529 354.909 207.449 355.244 207.889 355.268C208.834 355.32 214.951 354.184 215.23 353.905C215.578 353.556 213.541 353.811 210.289 354.524ZM197.371 355.608C198.847 355.685 201.367 355.685 202.971 355.609C204.576 355.533 203.369 355.47 200.289 355.47C197.209 355.469 195.896 355.531 197.371 355.608ZM313.707 363.112C313.707 363.332 314.059 363.962 314.489 364.512C314.919 365.062 315.271 365.332 315.271 365.112C315.271 364.892 314.919 364.262 314.489 363.712C314.059 363.162 313.707 362.892 313.707 363.112ZM315.289 365.855C315.289 366.274 318.447 372.642 318.466 372.262C318.495 371.696 315.784 365.712 315.499 365.712C315.384 365.712 315.289 365.777 315.289 365.855ZM318.522 373.112C318.504 373.332 318.857 374.412 319.305 375.512C319.754 376.612 320.014 376.992 319.884 376.356C319.604 374.998 318.569 372.531 318.522 373.112ZM320.265 378.712C321.18 383.591 321.438 384.646 321.599 384.173C321.819 383.523 320.921 378.955 320.406 378.112C320.156 377.702 320.111 377.891 320.265 378.712ZM79.47 379.565C79.328 380.196 79.05 381.342 78.852 382.112C78.655 382.882 78.51 384.052 78.53 384.712C78.55 385.372 78.901 384.3 79.311 382.329C79.721 380.358 79.982 378.672 79.892 378.582C79.802 378.491 79.612 378.934 79.47 379.565ZM321.723 386.712C321.711 387.372 321.876 388.182 322.089 388.512C322.595 389.294 322.595 387.488 322.089 386.312C321.794 385.625 321.742 385.682 321.723 386.712ZM77.991 387.912C77.886 388.462 77.955 388.912 78.144 388.912C78.334 388.912 78.489 388.462 78.489 387.912C78.489 387.362 78.42 386.912 78.336 386.912C78.251 386.912 78.096 387.362 77.991 387.912Z" fill="#4F4F4F"/>
</svg>
